<svg width="800" height="200" viewBox="0 0 800 200" fill="none" xmlns="http://www.w3.org/2000/svg">
<rect width="800" height="200" fill="#EAD5FF"/>
<path d="M193.103 51.28V80H189.383V59.56C189.383 59.2533 189.39 58.9267 189.403 58.58C189.43 58.2333 189.457 57.88 189.483 57.52L179.923 75.06C179.59 75.7133 179.077 76.04 178.383 76.04H177.783C177.09 76.04 176.583 75.7133 176.263 75.06L166.523 57.46C166.603 58.2067 166.643 58.9067 166.643 59.56V80H162.903V51.28H166.063C166.437 51.28 166.723 51.32 166.923 51.4C167.137 51.4667 167.337 51.6667 167.523 52L177.123 69.2C177.31 69.5467 177.483 69.9133 177.643 70.3C177.803 70.6867 177.957 71.0733 178.103 71.46C178.383 70.6733 178.71 69.9133 179.083 69.18L188.503 52C188.677 51.6667 188.863 51.4667 189.063 51.4C189.277 51.32 189.57 51.28 189.943 51.28H193.103ZM209.742 70.98C208.155 71.0333 206.809 71.16 205.702 71.36C204.595 71.5467 203.695 71.8 203.002 72.12C202.309 72.44 201.809 72.82 201.502 73.26C201.195 73.6867 201.042 74.1667 201.042 74.7C201.042 75.2067 201.122 75.6467 201.282 76.02C201.455 76.38 201.682 76.68 201.962 76.92C202.255 77.1467 202.595 77.3133 202.982 77.42C203.369 77.5267 203.789 77.58 204.242 77.58C204.842 77.58 205.389 77.52 205.882 77.4C206.389 77.28 206.862 77.1133 207.302 76.9C207.742 76.6733 208.162 76.4 208.562 76.08C208.962 75.76 209.355 75.3933 209.742 74.98V70.98ZM198.302 62.52C199.435 61.44 200.662 60.6333 201.982 60.1C203.315 59.5667 204.775 59.3 206.362 59.3C207.522 59.3 208.549 59.4933 209.442 59.88C210.335 60.2533 211.089 60.78 211.702 61.46C212.315 62.14 212.775 62.9533 213.082 63.9C213.402 64.8467 213.562 65.8933 213.562 67.04V80H211.822C211.435 80 211.142 79.94 210.942 79.82C210.742 79.6867 210.582 79.4467 210.462 79.1L210.042 77.32C209.522 77.8 209.009 78.2267 208.502 78.6C207.995 78.96 207.462 79.2733 206.902 79.54C206.355 79.7933 205.769 79.9867 205.142 80.12C204.515 80.2533 203.822 80.32 203.062 80.32C202.262 80.32 201.509 80.2133 200.802 80C200.109 79.7733 199.502 79.4333 198.982 78.98C198.462 78.5267 198.049 77.96 197.742 77.28C197.449 76.6 197.302 75.8067 197.302 74.9C197.302 74.1 197.515 73.3333 197.942 72.6C198.382 71.8533 199.089 71.1867 200.062 70.6C201.049 70.0133 202.329 69.5333 203.902 69.16C205.489 68.7867 207.435 68.5733 209.742 68.52V67.04C209.742 65.5067 209.415 64.36 208.762 63.6C208.109 62.84 207.149 62.46 205.882 62.46C205.029 62.46 204.309 62.5667 203.722 62.78C203.149 62.9933 202.649 63.2333 202.222 63.5C201.809 63.7533 201.442 63.9867 201.122 64.2C200.815 64.4133 200.495 64.52 200.162 64.52C199.895 64.52 199.662 64.4467 199.462 64.3C199.275 64.1533 199.122 63.98 199.002 63.78L198.302 62.52ZM222.463 63.58C223.116 62.2467 223.903 61.2 224.823 60.44C225.743 59.68 226.85 59.3 228.143 59.3C228.583 59.3 228.996 59.3533 229.383 59.46C229.783 59.5533 230.13 59.7 230.423 59.9L230.163 62.84C230.07 63.2 229.85 63.38 229.503 63.38C229.316 63.38 229.036 63.3467 228.663 63.28C228.29 63.2 227.89 63.16 227.463 63.16C226.836 63.16 226.283 63.2533 225.803 63.44C225.323 63.6133 224.89 63.88 224.503 64.24C224.13 64.5867 223.796 65.02 223.503 65.54C223.21 66.0467 222.936 66.6267 222.683 67.28V80H218.783V59.68H221.023C221.45 59.68 221.736 59.76 221.883 59.92C222.043 60.0667 222.156 60.3333 222.223 60.72L222.463 63.58ZM237.531 59.68V80H233.611V59.68H237.531ZM241.771 50.96L237.031 56.12C236.831 56.3467 236.638 56.5067 236.451 56.6C236.265 56.68 236.018 56.72 235.711 56.72H233.351L236.311 51.88C236.498 51.5733 236.698 51.3467 236.911 51.2C237.138 51.04 237.485 50.96 237.951 50.96H241.771ZM254.078 70.98C252.491 71.0333 251.145 71.16 250.038 71.36C248.931 71.5467 248.031 71.8 247.338 72.12C246.645 72.44 246.145 72.82 245.838 73.26C245.531 73.6867 245.378 74.1667 245.378 74.7C245.378 75.2067 245.458 75.6467 245.618 76.02C245.791 76.38 246.018 76.68 246.298 76.92C246.591 77.1467 246.931 77.3133 247.318 77.42C247.705 77.5267 248.125 77.58 248.578 77.58C249.178 77.58 249.725 77.52 250.218 77.4C250.725 77.28 251.198 77.1133 251.638 76.9C252.078 76.6733 252.498 76.4 252.898 76.08C253.298 75.76 253.691 75.3933 254.078 74.98V70.98ZM242.638 62.52C243.771 61.44 244.998 60.6333 246.318 60.1C247.651 59.5667 249.111 59.3 250.698 59.3C251.858 59.3 252.885 59.4933 253.778 59.88C254.671 60.2533 255.425 60.78 256.038 61.46C256.651 62.14 257.111 62.9533 257.418 63.9C257.738 64.8467 257.898 65.8933 257.898 67.04V80H256.158C255.771 80 255.478 79.94 255.278 79.82C255.078 79.6867 254.918 79.4467 254.798 79.1L254.378 77.32C253.858 77.8 253.345 78.2267 252.838 78.6C252.331 78.96 251.798 79.2733 251.238 79.54C250.691 79.7933 250.105 79.9867 249.478 80.12C248.851 80.2533 248.158 80.32 247.398 80.32C246.598 80.32 245.845 80.2133 245.138 80C244.445 79.7733 243.838 79.4333 243.318 78.98C242.798 78.5267 242.385 77.96 242.078 77.28C241.785 76.6 241.638 75.8067 241.638 74.9C241.638 74.1 241.851 73.3333 242.278 72.6C242.718 71.8533 243.425 71.1867 244.398 70.6C245.385 70.0133 246.665 69.5333 248.238 69.16C249.825 68.7867 251.771 68.5733 254.078 68.52V67.04C254.078 65.5067 253.751 64.36 253.098 63.6C252.445 62.84 251.485 62.46 250.218 62.46C249.365 62.46 248.645 62.5667 248.058 62.78C247.485 62.9933 246.985 63.2333 246.558 63.5C246.145 63.7533 245.778 63.9867 245.458 64.2C245.151 64.4133 244.831 64.52 244.498 64.52C244.231 64.52 243.998 64.4467 243.798 64.3C243.611 64.1533 243.458 63.98 243.338 63.78L242.638 62.52ZM284.296 76.62C285.376 76.62 286.296 76.4933 287.056 76.24C287.829 75.9867 288.456 75.64 288.936 75.2C289.429 74.76 289.789 74.24 290.016 73.64C290.243 73.0267 290.356 72.36 290.356 71.64C290.356 70.2133 289.863 69.0933 288.876 68.28C287.889 67.4533 286.363 67.04 284.296 67.04H278.296V76.62H284.296ZM278.296 54.62V64.02H283.196C285.289 64.02 286.843 63.6 287.856 62.76C288.883 61.9067 289.396 60.76 289.396 59.32C289.396 57.68 288.909 56.4867 287.936 55.74C286.963 54.9933 285.449 54.62 283.396 54.62H278.296ZM283.396 51.28C285.196 51.28 286.736 51.4533 288.016 51.8C289.309 52.1467 290.369 52.6467 291.196 53.3C292.023 53.9533 292.629 54.7467 293.016 55.68C293.416 56.6 293.616 57.6467 293.616 58.82C293.616 59.5133 293.509 60.18 293.296 60.82C293.083 61.46 292.756 62.06 292.316 62.62C291.876 63.1667 291.323 63.66 290.656 64.1C289.989 64.54 289.203 64.9067 288.296 65.2C292.469 66.0267 294.556 68.2067 294.556 71.74C294.556 72.9667 294.329 74.0867 293.876 75.1C293.423 76.1 292.763 76.9667 291.896 77.7C291.029 78.4333 289.963 79 288.696 79.4C287.429 79.8 285.989 80 284.376 80H274.036V51.28H283.396ZM302.463 63.58C303.116 62.2467 303.903 61.2 304.823 60.44C305.743 59.68 306.85 59.3 308.143 59.3C308.583 59.3 308.996 59.3533 309.383 59.46C309.783 59.5533 310.13 59.7 310.423 59.9L310.163 62.84C310.07 63.2 309.85 63.38 309.503 63.38C309.316 63.38 309.036 63.3467 308.663 63.28C308.29 63.2 307.89 63.16 307.463 63.16C306.836 63.16 306.283 63.2533 305.803 63.44C305.323 63.6133 304.89 63.88 304.503 64.24C304.13 64.5867 303.796 65.02 303.503 65.54C303.21 66.0467 302.936 66.6267 302.683 67.28V80H298.783V59.68H301.023C301.45 59.68 301.736 59.76 301.883 59.92C302.043 60.0667 302.156 60.3333 302.223 60.72L302.463 63.58ZM324.039 70.98C322.452 71.0333 321.106 71.16 319.999 71.36C318.892 71.5467 317.992 71.8 317.299 72.12C316.606 72.44 316.106 72.82 315.799 73.26C315.492 73.6867 315.339 74.1667 315.339 74.7C315.339 75.2067 315.419 75.6467 315.579 76.02C315.752 76.38 315.979 76.68 316.259 76.92C316.552 77.1467 316.892 77.3133 317.279 77.42C317.666 77.5267 318.086 77.58 318.539 77.58C319.139 77.58 319.686 77.52 320.179 77.4C320.686 77.28 321.159 77.1133 321.599 76.9C322.039 76.6733 322.459 76.4 322.859 76.08C323.259 75.76 323.652 75.3933 324.039 74.98V70.98ZM312.599 62.52C313.732 61.44 314.959 60.6333 316.279 60.1C317.612 59.5667 319.072 59.3 320.659 59.3C321.819 59.3 322.846 59.4933 323.739 59.88C324.632 60.2533 325.386 60.78 325.999 61.46C326.612 62.14 327.072 62.9533 327.379 63.9C327.699 64.8467 327.859 65.8933 327.859 67.04V80H326.119C325.732 80 325.439 79.94 325.239 79.82C325.039 79.6867 324.879 79.4467 324.759 79.1L324.339 77.32C323.819 77.8 323.306 78.2267 322.799 78.6C322.292 78.96 321.759 79.2733 321.199 79.54C320.652 79.7933 320.066 79.9867 319.439 80.12C318.812 80.2533 318.119 80.32 317.359 80.32C316.559 80.32 315.806 80.2133 315.099 80C314.406 79.7733 313.799 79.4333 313.279 78.98C312.759 78.5267 312.346 77.96 312.039 77.28C311.746 76.6 311.599 75.8067 311.599 74.9C311.599 74.1 311.812 73.3333 312.239 72.6C312.679 71.8533 313.386 71.1867 314.359 70.6C315.346 70.0133 316.626 69.5333 318.199 69.16C319.786 68.7867 321.732 68.5733 324.039 68.52V67.04C324.039 65.5067 323.712 64.36 323.059 63.6C322.406 62.84 321.446 62.46 320.179 62.46C319.326 62.46 318.606 62.5667 318.019 62.78C317.446 62.9933 316.946 63.2333 316.519 63.5C316.106 63.7533 315.739 63.9867 315.419 64.2C315.112 64.4133 314.792 64.52 314.459 64.52C314.192 64.52 313.959 64.4467 313.759 64.3C313.572 64.1533 313.419 63.98 313.299 63.78L312.599 62.52ZM347.32 63.48C347.2 63.6267 347.08 63.7467 346.96 63.84C346.853 63.92 346.693 63.96 346.48 63.96C346.267 63.96 346.04 63.88 345.8 63.72C345.573 63.5467 345.28 63.3667 344.92 63.18C344.573 62.98 344.147 62.8 343.64 62.64C343.147 62.4667 342.533 62.38 341.8 62.38C340.84 62.38 339.993 62.5533 339.26 62.9C338.527 63.2467 337.913 63.74 337.42 64.38C336.94 65.02 336.573 65.8 336.32 66.72C336.067 67.64 335.94 68.6733 335.94 69.82C335.94 71.0067 336.073 72.0667 336.34 73C336.607 73.92 336.987 74.7 337.48 75.34C337.973 75.9667 338.573 76.4467 339.28 76.78C339.987 77.1 340.773 77.26 341.64 77.26C342.48 77.26 343.173 77.16 343.72 76.96C344.267 76.7467 344.72 76.52 345.08 76.28C345.44 76.04 345.74 75.82 345.98 75.62C346.22 75.4067 346.467 75.3 346.72 75.3C347.04 75.3 347.287 75.42 347.46 75.66L348.58 77.1C348.113 77.6733 347.587 78.16 347 78.56C346.427 78.96 345.813 79.2867 345.16 79.54C344.507 79.7933 343.82 79.98 343.1 80.1C342.393 80.22 341.673 80.28 340.94 80.28C339.673 80.28 338.487 80.0467 337.38 79.58C336.287 79.1133 335.333 78.4333 334.52 77.54C333.72 76.6467 333.087 75.5533 332.62 74.26C332.153 72.9533 331.92 71.4733 331.92 69.82C331.92 68.3133 332.127 66.92 332.54 65.64C332.967 64.36 333.587 63.26 334.4 62.34C335.227 61.4067 336.24 60.68 337.44 60.16C338.64 59.6267 340.013 59.36 341.56 59.36C343.013 59.36 344.293 59.5933 345.4 60.06C346.507 60.5267 347.493 61.1867 348.36 62.04L347.32 63.48ZM356.12 62.26C356.974 61.3933 357.914 60.6933 358.94 60.16C359.98 59.6267 361.174 59.36 362.52 59.36C363.64 59.36 364.62 59.5467 365.46 59.92C366.314 60.2933 367.027 60.82 367.6 61.5C368.174 62.1667 368.607 62.9733 368.9 63.92C369.194 64.8667 369.34 65.9133 369.34 67.06V80H365.42V67.06C365.42 65.6067 365.087 64.48 364.42 63.68C363.754 62.8667 362.734 62.46 361.36 62.46C360.36 62.46 359.42 62.7 358.54 63.18C357.674 63.6467 356.867 64.2867 356.12 65.1V80H352.22V50.48H356.12V62.26ZM383.263 59.36C384.757 59.36 386.103 59.6067 387.303 60.1C388.517 60.58 389.543 61.28 390.383 62.2C391.237 63.1067 391.89 64.2067 392.343 65.5C392.797 66.78 393.023 68.22 393.023 69.82C393.023 71.42 392.797 72.8667 392.343 74.16C391.89 75.4533 391.237 76.5533 390.383 77.46C389.543 78.3667 388.517 79.0667 387.303 79.56C386.103 80.04 384.757 80.28 383.263 80.28C381.757 80.28 380.397 80.04 379.183 79.56C377.983 79.0667 376.957 78.3667 376.103 77.46C375.25 76.5533 374.59 75.4533 374.123 74.16C373.67 72.8667 373.443 71.42 373.443 69.82C373.443 68.22 373.67 66.78 374.123 65.5C374.59 64.2067 375.25 63.1067 376.103 62.2C376.957 61.28 377.983 60.58 379.183 60.1C380.397 59.6067 381.757 59.36 383.263 59.36ZM383.263 77.24C385.183 77.24 386.617 76.5933 387.563 75.3C388.51 74.0067 388.983 72.1867 388.983 69.84C388.983 67.4933 388.51 65.6733 387.563 64.38C386.617 63.0733 385.183 62.42 383.263 62.42C381.317 62.42 379.863 63.0733 378.903 64.38C377.957 65.6733 377.483 67.4933 377.483 69.84C377.483 72.1867 377.957 74.0067 378.903 75.3C379.863 76.5933 381.317 77.24 383.263 77.24Z" fill="#370075"/>
<path d="M164.601 109.318V116.052H172.665V118.474H164.601V127H161.605V106.896H174.065V109.318H164.601ZM178.25 115.506C178.707 114.573 179.258 113.84 179.902 113.308C180.546 112.776 181.321 112.51 182.226 112.51C182.534 112.51 182.823 112.547 183.094 112.622C183.374 112.687 183.617 112.79 183.822 112.93L183.64 114.988C183.575 115.24 183.421 115.366 183.178 115.366C183.047 115.366 182.851 115.343 182.59 115.296C182.329 115.24 182.049 115.212 181.75 115.212C181.311 115.212 180.924 115.277 180.588 115.408C180.252 115.529 179.949 115.716 179.678 115.968C179.417 116.211 179.183 116.514 178.978 116.878C178.773 117.233 178.581 117.639 178.404 118.096V127H175.674V112.776H177.242C177.541 112.776 177.741 112.832 177.844 112.944C177.956 113.047 178.035 113.233 178.082 113.504L178.25 115.506ZM191.47 112.552C192.516 112.552 193.458 112.725 194.298 113.07C195.148 113.406 195.866 113.896 196.454 114.54C197.052 115.175 197.509 115.945 197.826 116.85C198.144 117.746 198.302 118.754 198.302 119.874C198.302 120.994 198.144 122.007 197.826 122.912C197.509 123.817 197.052 124.587 196.454 125.222C195.866 125.857 195.148 126.347 194.298 126.692C193.458 127.028 192.516 127.196 191.47 127.196C190.416 127.196 189.464 127.028 188.614 126.692C187.774 126.347 187.056 125.857 186.458 125.222C185.861 124.587 185.399 123.817 185.072 122.912C184.755 122.007 184.596 120.994 184.596 119.874C184.596 118.754 184.755 117.746 185.072 116.85C185.399 115.945 185.861 115.175 186.458 114.54C187.056 113.896 187.774 113.406 188.614 113.07C189.464 112.725 190.416 112.552 191.47 112.552ZM191.47 125.068C192.814 125.068 193.818 124.615 194.48 123.71C195.143 122.805 195.474 121.531 195.474 119.888C195.474 118.245 195.143 116.971 194.48 116.066C193.818 115.151 192.814 114.694 191.47 114.694C190.108 114.694 189.09 115.151 188.418 116.066C187.756 116.971 187.424 118.245 187.424 119.888C187.424 121.531 187.756 122.805 188.418 123.71C189.09 124.615 190.108 125.068 191.47 125.068ZM203.912 114.75C204.22 114.423 204.542 114.125 204.878 113.854C205.214 113.583 205.568 113.355 205.942 113.168C206.324 112.972 206.73 112.823 207.16 112.72C207.598 112.608 208.065 112.552 208.56 112.552C209.344 112.552 210.03 112.683 210.618 112.944C211.215 113.205 211.714 113.574 212.116 114.05C212.517 114.517 212.82 115.081 213.026 115.744C213.231 116.407 213.334 117.139 213.334 117.942V127H210.59V117.942C210.59 116.925 210.356 116.136 209.89 115.576C209.423 115.007 208.709 114.722 207.748 114.722C207.048 114.722 206.39 114.89 205.774 115.226C205.167 115.553 204.602 116.001 204.08 116.57V127H201.35V112.776H202.988C203.37 112.776 203.608 112.958 203.702 113.322L203.912 114.75ZM221.278 127.224C220.13 127.224 219.244 126.902 218.618 126.258C218.002 125.614 217.694 124.695 217.694 123.5V114.988H216.042C215.884 114.988 215.748 114.941 215.636 114.848C215.534 114.745 215.482 114.596 215.482 114.4V113.294L217.792 112.972L218.408 108.73C218.446 108.571 218.516 108.45 218.618 108.366C218.73 108.273 218.87 108.226 219.038 108.226H220.424V113H224.456V114.988H220.424V123.318C220.424 123.878 220.56 124.298 220.83 124.578C221.11 124.849 221.465 124.984 221.894 124.984C222.146 124.984 222.361 124.951 222.538 124.886C222.725 124.821 222.884 124.751 223.014 124.676C223.145 124.592 223.257 124.517 223.35 124.452C223.444 124.387 223.528 124.354 223.602 124.354C223.696 124.354 223.766 124.377 223.812 124.424C223.868 124.461 223.924 124.527 223.98 124.62L224.792 125.936C224.344 126.347 223.812 126.664 223.196 126.888C222.58 127.112 221.941 127.224 221.278 127.224ZM236.311 118.306C236.311 117.765 236.231 117.265 236.073 116.808C235.923 116.351 235.699 115.954 235.401 115.618C235.102 115.282 234.738 115.021 234.309 114.834C233.879 114.647 233.385 114.554 232.825 114.554C231.677 114.554 230.771 114.885 230.109 115.548C229.455 116.211 229.04 117.13 228.863 118.306H236.311ZM238.565 124.97C238.229 125.362 237.841 125.703 237.403 125.992C236.964 126.272 236.497 126.501 236.003 126.678C235.508 126.855 234.995 126.986 234.463 127.07C233.94 127.154 233.422 127.196 232.909 127.196C231.929 127.196 231.019 127.033 230.179 126.706C229.348 126.37 228.625 125.885 228.009 125.25C227.402 124.606 226.926 123.813 226.581 122.87C226.245 121.918 226.077 120.826 226.077 119.594C226.077 118.605 226.231 117.685 226.539 116.836C226.847 115.977 227.285 115.231 227.855 114.596C228.433 113.961 229.138 113.462 229.969 113.098C230.799 112.734 231.733 112.552 232.769 112.552C233.637 112.552 234.435 112.697 235.163 112.986C235.9 113.266 236.535 113.677 237.067 114.218C237.599 114.759 238.014 115.427 238.313 116.22C238.621 117.013 238.775 117.919 238.775 118.936C238.775 119.356 238.728 119.641 238.635 119.79C238.541 119.93 238.369 120 238.117 120H228.793C228.821 120.849 228.942 121.591 229.157 122.226C229.371 122.851 229.665 123.374 230.039 123.794C230.421 124.214 230.874 124.527 231.397 124.732C231.919 124.937 232.503 125.04 233.147 125.04C233.753 125.04 234.276 124.97 234.715 124.83C235.163 124.69 235.545 124.541 235.863 124.382C236.189 124.214 236.46 124.06 236.675 123.92C236.899 123.78 237.095 123.71 237.263 123.71C237.487 123.71 237.659 123.794 237.781 123.962L238.565 124.97ZM244.271 114.75C244.579 114.423 244.901 114.125 245.237 113.854C245.573 113.583 245.928 113.355 246.301 113.168C246.684 112.972 247.09 112.823 247.519 112.72C247.958 112.608 248.424 112.552 248.919 112.552C249.703 112.552 250.389 112.683 250.977 112.944C251.574 113.205 252.074 113.574 252.475 114.05C252.876 114.517 253.18 115.081 253.385 115.744C253.59 116.407 253.693 117.139 253.693 117.942V127H250.949V117.942C250.949 116.925 250.716 116.136 250.249 115.576C249.782 115.007 249.068 114.722 248.107 114.722C247.407 114.722 246.749 114.89 246.133 115.226C245.526 115.553 244.962 116.001 244.439 116.57V127H241.709V112.776H243.347C243.73 112.776 243.968 112.958 244.061 113.322L244.271 114.75ZM266.547 116.22C266.099 115.632 265.614 115.221 265.091 114.988C264.578 114.755 263.999 114.638 263.355 114.638C262.104 114.638 261.134 115.091 260.443 115.996C259.762 116.892 259.421 118.203 259.421 119.93C259.421 120.835 259.496 121.61 259.645 122.254C259.804 122.889 260.028 123.411 260.317 123.822C260.616 124.223 260.98 124.522 261.409 124.718C261.838 124.905 262.324 124.998 262.865 124.998C263.658 124.998 264.344 124.821 264.923 124.466C265.502 124.111 266.043 123.612 266.547 122.968V116.22ZM269.291 106.336V127H267.639C267.256 127 267.018 126.818 266.925 126.454L266.687 124.816C266.08 125.535 265.39 126.113 264.615 126.552C263.85 126.981 262.963 127.196 261.955 127.196C261.143 127.196 260.406 127.037 259.743 126.72C259.09 126.403 258.53 125.941 258.063 125.334C257.596 124.718 257.237 123.957 256.985 123.052C256.733 122.147 256.607 121.106 256.607 119.93C256.607 118.875 256.747 117.895 257.027 116.99C257.307 116.085 257.713 115.301 258.245 114.638C258.777 113.975 259.421 113.457 260.177 113.084C260.933 112.701 261.787 112.51 262.739 112.51C263.598 112.51 264.326 112.65 264.923 112.93C265.53 113.21 266.071 113.607 266.547 114.12V106.336H269.291ZM289.352 116.22C288.904 115.632 288.418 115.221 287.896 114.988C287.382 114.755 286.804 114.638 286.16 114.638C284.909 114.638 283.938 115.091 283.248 115.996C282.566 116.892 282.226 118.203 282.226 119.93C282.226 120.835 282.3 121.61 282.45 122.254C282.608 122.889 282.832 123.411 283.122 123.822C283.42 124.223 283.784 124.522 284.214 124.718C284.643 124.905 285.128 124.998 285.67 124.998C286.463 124.998 287.149 124.821 287.728 124.466C288.306 124.111 288.848 123.612 289.352 122.968V116.22ZM292.096 106.336V127H290.444C290.061 127 289.823 126.818 289.73 126.454L289.492 124.816C288.885 125.535 288.194 126.113 287.42 126.552C286.654 126.981 285.768 127.196 284.76 127.196C283.948 127.196 283.21 127.037 282.548 126.72C281.894 126.403 281.334 125.941 280.868 125.334C280.401 124.718 280.042 123.957 279.79 123.052C279.538 122.147 279.412 121.106 279.412 119.93C279.412 118.875 279.552 117.895 279.832 116.99C280.112 116.085 280.518 115.301 281.05 114.638C281.582 113.975 282.226 113.457 282.982 113.084C283.738 112.701 284.592 112.51 285.544 112.51C286.402 112.51 287.13 112.65 287.728 112.93C288.334 113.21 288.876 113.607 289.352 114.12V106.336H292.096ZM305.326 118.306C305.326 117.765 305.247 117.265 305.088 116.808C304.939 116.351 304.715 115.954 304.416 115.618C304.118 115.282 303.754 115.021 303.324 114.834C302.895 114.647 302.4 114.554 301.84 114.554C300.692 114.554 299.787 114.885 299.124 115.548C298.471 116.211 298.056 117.13 297.878 118.306H305.326ZM307.58 124.97C307.244 125.362 306.857 125.703 306.418 125.992C305.98 126.272 305.513 126.501 305.018 126.678C304.524 126.855 304.01 126.986 303.478 127.07C302.956 127.154 302.438 127.196 301.924 127.196C300.944 127.196 300.034 127.033 299.194 126.706C298.364 126.37 297.64 125.885 297.024 125.25C296.418 124.606 295.942 123.813 295.596 122.87C295.26 121.918 295.092 120.826 295.092 119.594C295.092 118.605 295.246 117.685 295.554 116.836C295.862 115.977 296.301 115.231 296.87 114.596C297.449 113.961 298.154 113.462 298.984 113.098C299.815 112.734 300.748 112.552 301.784 112.552C302.652 112.552 303.45 112.697 304.178 112.986C304.916 113.266 305.55 113.677 306.082 114.218C306.614 114.759 307.03 115.427 307.328 116.22C307.636 117.013 307.79 117.919 307.79 118.936C307.79 119.356 307.744 119.641 307.65 119.79C307.557 119.93 307.384 120 307.132 120H297.808C297.836 120.849 297.958 121.591 298.172 122.226C298.387 122.851 298.681 123.374 299.054 123.794C299.437 124.214 299.89 124.527 300.412 124.732C300.935 124.937 301.518 125.04 302.162 125.04C302.769 125.04 303.292 124.97 303.73 124.83C304.178 124.69 304.561 124.541 304.878 124.382C305.205 124.214 305.476 124.06 305.69 123.92C305.914 123.78 306.11 123.71 306.278 123.71C306.502 123.71 306.675 123.794 306.796 123.962L307.58 124.97ZM322.745 112.776L316.977 127H314.513L308.745 112.776H310.999C311.213 112.776 311.391 112.827 311.531 112.93C311.671 113.033 311.764 113.163 311.811 113.322L315.213 122.058C315.334 122.422 315.437 122.786 315.521 123.15C315.614 123.505 315.698 123.859 315.773 124.214C315.847 123.859 315.931 123.505 316.025 123.15C316.118 122.795 316.23 122.431 316.361 122.058L319.805 113.322C319.861 113.163 319.959 113.033 320.099 112.93C320.239 112.827 320.407 112.776 320.603 112.776H322.745ZM333.928 118.306C333.928 117.765 333.849 117.265 333.69 116.808C333.541 116.351 333.317 115.954 333.018 115.618C332.719 115.282 332.355 115.021 331.926 114.834C331.497 114.647 331.002 114.554 330.442 114.554C329.294 114.554 328.389 114.885 327.726 115.548C327.073 116.211 326.657 117.13 326.48 118.306H333.928ZM336.182 124.97C335.846 125.362 335.459 125.703 335.02 125.992C334.581 126.272 334.115 126.501 333.62 126.678C333.125 126.855 332.612 126.986 332.08 127.07C331.557 127.154 331.039 127.196 330.526 127.196C329.546 127.196 328.636 127.033 327.796 126.706C326.965 126.37 326.242 125.885 325.626 125.25C325.019 124.606 324.543 123.813 324.198 122.87C323.862 121.918 323.694 120.826 323.694 119.594C323.694 118.605 323.848 117.685 324.156 116.836C324.464 115.977 324.903 115.231 325.472 114.596C326.051 113.961 326.755 113.462 327.586 113.098C328.417 112.734 329.35 112.552 330.386 112.552C331.254 112.552 332.052 112.697 332.78 112.986C333.517 113.266 334.152 113.677 334.684 114.218C335.216 114.759 335.631 115.427 335.93 116.22C336.238 117.013 336.392 117.919 336.392 118.936C336.392 119.356 336.345 119.641 336.252 119.79C336.159 119.93 335.986 120 335.734 120H326.41C326.438 120.849 326.559 121.591 326.774 122.226C326.989 122.851 327.283 123.374 327.656 123.794C328.039 124.214 328.491 124.527 329.014 124.732C329.537 124.937 330.12 125.04 330.764 125.04C331.371 125.04 331.893 124.97 332.332 124.83C332.78 124.69 333.163 124.541 333.48 124.382C333.807 124.214 334.077 124.06 334.292 123.92C334.516 123.78 334.712 123.71 334.88 123.71C335.104 123.71 335.277 123.794 335.398 123.962L336.182 124.97ZM342.126 106.336V127H339.382V106.336H342.126ZM352.087 112.552C353.133 112.552 354.075 112.725 354.915 113.07C355.765 113.406 356.483 113.896 357.071 114.54C357.669 115.175 358.126 115.945 358.443 116.85C358.761 117.746 358.919 118.754 358.919 119.874C358.919 120.994 358.761 122.007 358.443 122.912C358.126 123.817 357.669 124.587 357.071 125.222C356.483 125.857 355.765 126.347 354.915 126.692C354.075 127.028 353.133 127.196 352.087 127.196C351.033 127.196 350.081 127.028 349.231 126.692C348.391 126.347 347.673 125.857 347.075 125.222C346.478 124.587 346.016 123.817 345.689 122.912C345.372 122.007 345.213 120.994 345.213 119.874C345.213 118.754 345.372 117.746 345.689 116.85C346.016 115.945 346.478 115.175 347.075 114.54C347.673 113.896 348.391 113.406 349.231 113.07C350.081 112.725 351.033 112.552 352.087 112.552ZM352.087 125.068C353.431 125.068 354.435 124.615 355.097 123.71C355.76 122.805 356.091 121.531 356.091 119.888C356.091 118.245 355.76 116.971 355.097 116.066C354.435 115.151 353.431 114.694 352.087 114.694C350.725 114.694 349.707 115.151 349.035 116.066C348.373 116.971 348.041 118.245 348.041 119.888C348.041 121.531 348.373 122.805 349.035 123.71C349.707 124.615 350.725 125.068 352.087 125.068ZM364.697 123.5C365.145 124.088 365.625 124.499 366.139 124.732C366.661 124.965 367.245 125.082 367.889 125.082C369.139 125.082 370.105 124.634 370.787 123.738C371.477 122.833 371.823 121.517 371.823 119.79C371.823 118.885 371.743 118.115 371.585 117.48C371.435 116.836 371.211 116.313 370.913 115.912C370.623 115.501 370.264 115.203 369.835 115.016C369.405 114.82 368.92 114.722 368.379 114.722C367.585 114.722 366.895 114.899 366.307 115.254C365.728 115.609 365.191 116.113 364.697 116.766V123.5ZM364.557 114.904C364.855 114.549 365.173 114.227 365.509 113.938C365.854 113.639 366.223 113.387 366.615 113.182C367.007 112.967 367.422 112.804 367.861 112.692C368.309 112.571 368.785 112.51 369.289 112.51C370.101 112.51 370.833 112.669 371.487 112.986C372.149 113.303 372.714 113.77 373.181 114.386C373.647 115.002 374.007 115.763 374.259 116.668C374.52 117.573 374.651 118.614 374.651 119.79C374.651 120.845 374.506 121.825 374.217 122.73C373.937 123.626 373.531 124.405 372.999 125.068C372.476 125.731 371.832 126.253 371.067 126.636C370.311 127.009 369.457 127.196 368.505 127.196C367.655 127.196 366.927 127.056 366.321 126.776C365.714 126.496 365.173 126.104 364.697 125.6V131.774H361.967V112.776H363.605C363.987 112.776 364.225 112.958 364.319 113.322L364.557 114.904ZM387.139 118.306C387.139 117.765 387.059 117.265 386.901 116.808C386.751 116.351 386.527 115.954 386.229 115.618C385.93 115.282 385.566 115.021 385.137 114.834C384.707 114.647 384.213 114.554 383.653 114.554C382.505 114.554 381.599 114.885 380.937 115.548C380.283 116.211 379.868 117.13 379.691 118.306H387.139ZM389.393 124.97C389.057 125.362 388.669 125.703 388.231 125.992C387.792 126.272 387.325 126.501 386.831 126.678C386.336 126.855 385.823 126.986 385.291 127.07C384.768 127.154 384.25 127.196 383.737 127.196C382.757 127.196 381.847 127.033 381.007 126.706C380.176 126.37 379.453 125.885 378.837 125.25C378.23 124.606 377.754 123.813 377.409 122.87C377.073 121.918 376.905 120.826 376.905 119.594C376.905 118.605 377.059 117.685 377.367 116.836C377.675 115.977 378.113 115.231 378.683 114.596C379.261 113.961 379.966 113.462 380.797 113.098C381.627 112.734 382.561 112.552 383.597 112.552C384.465 112.552 385.263 112.697 385.991 112.986C386.728 113.266 387.363 113.677 387.895 114.218C388.427 114.759 388.842 115.427 389.141 116.22C389.449 117.013 389.603 117.919 389.603 118.936C389.603 119.356 389.556 119.641 389.463 119.79C389.369 119.93 389.197 120 388.945 120H379.621C379.649 120.849 379.77 121.591 379.985 122.226C380.199 122.851 380.493 123.374 380.867 123.794C381.249 124.214 381.702 124.527 382.225 124.732C382.747 124.937 383.331 125.04 383.975 125.04C384.581 125.04 385.104 124.97 385.543 124.83C385.991 124.69 386.373 124.541 386.691 124.382C387.017 124.214 387.288 124.06 387.503 123.92C387.727 123.78 387.923 123.71 388.091 123.71C388.315 123.71 388.487 123.794 388.609 123.962L389.393 124.97ZM395.113 115.506C395.57 114.573 396.121 113.84 396.765 113.308C397.409 112.776 398.184 112.51 399.089 112.51C399.397 112.51 399.686 112.547 399.957 112.622C400.237 112.687 400.48 112.79 400.685 112.93L400.503 114.988C400.438 115.24 400.284 115.366 400.041 115.366C399.91 115.366 399.714 115.343 399.453 115.296C399.192 115.24 398.912 115.212 398.613 115.212C398.174 115.212 397.787 115.277 397.451 115.408C397.115 115.529 396.812 115.716 396.541 115.968C396.28 116.211 396.046 116.514 395.841 116.878C395.636 117.233 395.444 117.639 395.267 118.096V127H392.537V112.776H394.105C394.404 112.776 394.604 112.832 394.707 112.944C394.819 113.047 394.898 113.233 394.945 113.504L395.113 115.506Z" fill="#222222"/>
<path d="M638.445 193.99C699.442 193.99 748.89 191.157 748.89 187.663C748.89 184.169 699.442 181.336 638.445 181.336C577.448 181.336 528 184.169 528 187.663C528 191.157 577.448 193.99 638.445 193.99Z" fill="#F5F5F5"/>
<path d="M681.697 7H664.705C663.991 7 663.412 7.56805 663.412 8.26877V24.9417C663.412 25.6424 663.991 26.2104 664.705 26.2104H681.697C682.411 26.2104 682.99 25.6424 682.99 24.9417V8.26877C682.99 7.56805 682.411 7 681.697 7Z" fill="#7E57C2"/>
<g opacity="0.4">
<path d="M681.697 7H664.705C663.991 7 663.412 7.56805 663.412 8.26877V24.9417C663.412 25.6424 663.991 26.2104 664.705 26.2104H681.697C682.411 26.2104 682.99 25.6424 682.99 24.9417V8.26877C682.99 7.56805 682.411 7 681.697 7Z" fill="white"/>
</g>
<path d="M670.572 15.5907L667.154 16.8148L670.572 18.0277V19.2908L665.719 17.4743V16.1776L670.572 14.3611V15.5907Z" fill="white"/>
<path d="M674.229 11.8906H675.647L672.275 21.3198H670.857L674.229 11.8906Z" fill="white"/>
<path d="M680.683 16.1664V17.4631L675.83 19.2908V18.0388L679.247 16.826L675.83 15.6019V14.3611L680.683 16.1664Z" fill="white"/>
<path d="M667.724 29.7205V34.382H666.624V32.4648H664.46V34.382H663.36V29.7149H664.46V31.5873H666.624V29.7484L667.724 29.7205Z" fill="#263238"/>
<path d="M669.843 30.598H668.316V29.7205H672.463V30.598H670.942V34.382H669.843V30.598Z" fill="#263238"/>
<path d="M677.39 34.382V31.5873L675.989 33.8957H675.471L674.075 31.66V34.382H673.044V29.7149H673.956L675.733 32.6158L677.487 29.7149H678.393V34.382H677.39Z" fill="#263238"/>
<path d="M679.555 29.7205H680.654V33.5045H683.041V34.382H679.555V29.7205Z" fill="#263238"/>
<g opacity="0.6">
<path d="M667.724 29.7205V34.382H666.624V32.4648H664.46V34.382H663.36V29.7149H664.46V31.5873H666.624V29.7484L667.724 29.7205Z" fill="white"/>
<path d="M669.843 30.598H668.316V29.7205H672.463V30.598H670.942V34.3819H669.843V30.598Z" fill="white"/>
<path d="M677.39 34.382V31.5873L675.989 33.8957H675.471L674.075 31.66V34.382H673.044V29.7149H673.956L675.733 32.6158L677.487 29.7149H678.393V34.382H677.39Z" fill="white"/>
<path d="M679.555 29.7205H680.654V33.5044H683.041V34.3819H679.555V29.7205Z" fill="white"/>
</g>
<path d="M723.57 17.2396H706.578C705.864 17.2396 705.285 17.8076 705.285 18.5084V35.1812C705.285 35.882 705.864 36.45 706.578 36.45H723.57C724.284 36.45 724.863 35.882 724.863 35.1812V18.5084C724.863 17.8076 724.284 17.2396 723.57 17.2396Z" fill="#7E57C2"/>
<g opacity="0.4">
<path d="M723.57 17.2396H706.578C705.864 17.2396 705.285 17.8076 705.285 18.5084V35.1812C705.285 35.882 705.864 36.45 706.578 36.45H723.57C724.284 36.45 724.863 35.882 724.863 35.1812V18.5084C724.863 17.8076 724.284 17.2396 723.57 17.2396Z" fill="white"/>
</g>
<path d="M711.864 26.842C712.331 26.9817 712.548 27.2724 712.548 27.9599V29.564C712.535 29.6634 712.545 29.7644 712.578 29.8592C712.611 29.9541 712.666 30.0403 712.737 30.1115C712.809 30.1826 712.897 30.2367 712.993 30.2696C713.09 30.3026 713.193 30.3136 713.294 30.3018H713.476V31.5258H712.907C711.631 31.5258 710.981 30.8831 710.981 29.7317V27.9207C710.99 27.8595 710.985 27.7971 710.965 27.7382C710.946 27.6793 710.914 27.6253 710.871 27.5803C710.828 27.5352 710.775 27.5002 710.716 27.4779C710.657 27.4556 710.594 27.4465 710.531 27.4512H710.195V26.2272H710.531C710.594 26.232 710.657 26.2228 710.716 26.2005C710.775 26.1782 710.828 26.1432 710.871 26.0982C710.914 26.0531 710.946 25.9992 710.965 25.9402C710.985 25.8813 710.99 25.8189 710.981 25.7577V23.9468C710.981 22.7954 711.631 22.1526 712.907 22.1526H713.476V23.3766H713.294C713.193 23.3648 713.09 23.3758 712.993 23.4088C712.897 23.4418 712.809 23.4959 712.737 23.567C712.666 23.6381 712.611 23.7244 712.578 23.8192C712.545 23.9141 712.535 24.015 712.548 24.1144V25.7186C712.548 26.4116 712.331 26.7023 711.864 26.842Z" fill="white"/>
<path d="M719.976 26.2328V27.4568H719.64C719.577 27.4521 719.514 27.4612 719.455 27.4835C719.396 27.5058 719.343 27.5408 719.3 27.5858C719.257 27.6309 719.225 27.6849 719.205 27.7438C719.186 27.8027 719.181 27.8651 719.19 27.9263V29.7373C719.19 30.8887 718.535 31.5314 717.264 31.5314H716.695V30.3074H716.877C716.978 30.3192 717.081 30.3082 717.178 30.2752C717.274 30.2422 717.362 30.1881 717.433 30.117C717.505 30.0459 717.56 29.9597 717.593 29.8648C717.626 29.7699 717.636 29.669 717.623 29.5696V27.9655C717.623 27.2724 717.834 26.9817 718.307 26.8476C717.834 26.7079 717.623 26.4172 717.623 25.7297V24.1256C717.636 24.0262 717.626 23.9252 717.593 23.8304C717.56 23.7355 717.505 23.6493 717.433 23.5781C717.362 23.507 717.274 23.4529 717.178 23.42C717.081 23.387 716.978 23.376 716.877 23.3878H716.695V22.1638H717.264C718.535 22.1638 719.19 22.8065 719.19 23.9579V25.7689C719.181 25.8301 719.186 25.8925 719.205 25.9514C719.225 26.0103 719.257 26.0643 719.3 26.1093C719.343 26.1544 719.396 26.1894 719.455 26.2117C719.514 26.234 719.577 26.2431 719.64 26.2384L719.976 26.2328Z" fill="white"/>
<path d="M708.509 42.3635C708.537 41.857 708.718 41.3701 709.027 40.9639C709.337 40.5577 709.762 40.2504 710.249 40.0808C710.736 39.9111 711.263 39.8866 711.765 40.0103C712.266 40.134 712.719 40.4005 713.066 40.7761L712.36 41.4189C712.216 41.2435 712.034 41.1022 711.827 41.0055C711.62 40.9087 711.393 40.859 711.164 40.86C710.956 40.8475 710.747 40.8769 710.551 40.9464C710.356 41.0159 710.176 41.124 710.024 41.264C709.873 41.4041 709.752 41.5732 709.669 41.7608C709.586 41.9484 709.544 42.1507 709.544 42.3551C709.544 42.5595 709.586 42.7618 709.669 42.9494C709.752 43.137 709.873 43.3061 710.024 43.4462C710.176 43.5862 710.356 43.6943 710.551 43.7638C710.747 43.8333 710.956 43.8627 711.164 43.8502C711.393 43.8508 711.619 43.8009 711.826 43.7042C712.034 43.6075 712.216 43.4664 712.36 43.2913L713.066 43.9285C712.72 44.3065 712.268 44.5754 711.766 44.7009C711.265 44.8264 710.736 44.803 710.248 44.6336C709.76 44.4642 709.334 44.1564 709.025 43.7493C708.715 43.3422 708.536 42.854 708.509 42.3467V42.3635Z" fill="#263238"/>
<path d="M713.362 44.2415L713.733 43.4255C714.196 43.7361 714.743 43.9053 715.305 43.9117C715.954 43.9117 716.222 43.6994 716.222 43.4143C716.222 42.5368 713.453 43.1404 713.453 41.4077C713.453 40.6141 714.109 39.9489 715.459 39.9489C716.037 39.9394 716.607 40.0822 717.11 40.3625L716.774 41.1842C716.373 40.9536 715.918 40.8285 715.453 40.8209C714.803 40.8209 714.547 41.0556 714.547 41.3518C714.547 42.2126 717.316 41.6201 717.316 43.3305C717.316 44.113 716.655 44.7781 715.299 44.7781C714.613 44.794 713.938 44.607 713.362 44.2415V44.2415Z" fill="#263238"/>
<path d="M717.697 44.2415L718.073 43.4255C718.536 43.7385 719.083 43.908 719.645 43.9117C720.295 43.9117 720.562 43.6993 720.562 43.4143C720.562 42.5368 717.794 43.1404 717.794 41.4077C717.794 40.614 718.449 39.9489 719.799 39.9489C720.378 39.9402 720.948 40.083 721.451 40.3625L721.109 41.1842C720.71 40.9531 720.257 40.8279 719.793 40.8209C719.138 40.8209 718.888 41.0556 718.888 41.3518C718.888 42.2126 721.656 41.6201 721.656 43.3304C721.656 44.1129 720.995 44.7781 719.634 44.7781C718.948 44.794 718.273 44.607 717.697 44.2415V44.2415Z" fill="#263238"/>
<g opacity="0.6">
<path d="M708.509 42.3635C708.537 41.857 708.718 41.3701 709.027 40.9639C709.337 40.5577 709.762 40.2504 710.249 40.0808C710.736 39.9111 711.263 39.8866 711.765 40.0103C712.266 40.134 712.719 40.4005 713.066 40.7761L712.36 41.4189C712.216 41.2435 712.034 41.1022 711.827 41.0055C711.62 40.9087 711.393 40.859 711.164 40.86C710.956 40.8475 710.747 40.8769 710.551 40.9464C710.356 41.0159 710.176 41.124 710.024 41.264C709.873 41.4041 709.752 41.5732 709.669 41.7608C709.586 41.9484 709.544 42.1507 709.544 42.3551C709.544 42.5595 709.586 42.7618 709.669 42.9494C709.752 43.137 709.873 43.3061 710.024 43.4462C710.176 43.5862 710.356 43.6943 710.551 43.7638C710.747 43.8333 710.956 43.8627 711.164 43.8502C711.393 43.8508 711.619 43.8009 711.826 43.7042C712.034 43.6075 712.216 43.4664 712.36 43.2913L713.066 43.9285C712.72 44.3065 712.268 44.5754 711.766 44.7009C711.265 44.8264 710.736 44.803 710.248 44.6336C709.76 44.4642 709.334 44.1564 709.025 43.7493C708.715 43.3422 708.536 42.854 708.509 42.3467V42.3635Z" fill="white"/>
<path d="M713.362 44.2414L713.733 43.4254C714.196 43.736 714.743 43.9052 715.305 43.9117C715.954 43.9117 716.222 43.6993 716.222 43.4142C716.222 42.5367 713.454 43.1404 713.454 41.4077C713.454 40.614 714.109 39.9489 715.459 39.9489C716.037 39.9394 716.608 40.0822 717.111 40.3625L716.775 41.1841C716.373 40.9536 715.918 40.8284 715.453 40.8208C714.804 40.8208 714.547 41.0555 714.547 41.3518C714.547 42.2125 717.316 41.6201 717.316 43.3304C717.316 44.1129 716.655 44.778 715.299 44.778C714.613 44.7939 713.938 44.607 713.362 44.2414V44.2414Z" fill="white"/>
<path d="M717.697 44.2414L718.073 43.4254C718.536 43.7385 719.083 43.9079 719.645 43.9117C720.295 43.9117 720.562 43.6993 720.562 43.4142C720.562 42.5367 717.794 43.1404 717.794 41.4077C717.794 40.614 718.449 39.9489 719.799 39.9489C720.378 39.9402 720.948 40.0829 721.451 40.3625L721.109 41.1841C720.71 40.9531 720.257 40.8279 719.793 40.8208C719.138 40.8208 718.888 41.0555 718.888 41.3518C718.888 42.2125 721.656 41.6201 721.656 43.3304C721.656 44.1129 720.995 44.778 719.634 44.778C718.948 44.7939 718.273 44.607 717.697 44.2414V44.2414Z" fill="white"/>
</g>
<path d="M650.441 15.3672H580.656V64.9331H650.441V15.3672Z" fill="black"/>
<path opacity="0.9" d="M650.441 15.3672H580.656V64.9331H650.441V15.3672Z" fill="white"/>
<path opacity="0.1" d="M590.374 15.3672H580.656V64.9331H590.374V15.3672Z" fill="black"/>
<path d="M650.441 15.3672H580.656V20.0007H650.441V15.3672Z" fill="#7E57C2"/>
<g opacity="0.2">
<path d="M608.659 26.9929H595.951C595.8 26.9929 595.655 26.934 595.548 26.8292C595.441 26.7244 595.381 26.5822 595.381 26.434C595.381 26.2858 595.441 26.1436 595.548 26.0388C595.655 25.9339 595.8 25.8751 595.951 25.8751H608.659C608.81 25.8751 608.955 25.9339 609.062 26.0388C609.169 26.1436 609.229 26.2858 609.229 26.434C609.229 26.5822 609.169 26.7244 609.062 26.8292C608.955 26.934 608.81 26.9929 608.659 26.9929Z" fill="black"/>
<path d="M636.736 26.9929H612.043C611.892 26.9929 611.747 26.934 611.64 26.8292C611.533 26.7244 611.473 26.5822 611.473 26.434C611.473 26.2858 611.533 26.1436 611.64 26.0388C611.747 25.9339 611.892 25.8751 612.043 25.8751H636.736C636.887 25.8751 637.032 25.9339 637.139 26.0388C637.246 26.1436 637.306 26.2858 637.306 26.434C637.306 26.5822 637.246 26.7244 637.139 26.8292C637.032 26.934 636.887 26.9929 636.736 26.9929Z" fill="black"/>
<path d="M630.858 30.6427H597.66C597.509 30.6427 597.364 30.5838 597.257 30.479C597.15 30.3742 597.09 30.232 597.09 30.0838C597.09 29.9355 597.15 29.7934 597.257 29.6885C597.364 29.5837 597.509 29.5248 597.66 29.5248H630.858C631.009 29.5248 631.154 29.5837 631.26 29.6885C631.367 29.7934 631.427 29.9355 631.427 30.0838C631.427 30.232 631.367 30.3742 631.26 30.479C631.154 30.5838 631.009 30.6427 630.858 30.6427Z" fill="black"/>
<path d="M617.335 34.2869H595.951C595.8 34.2869 595.655 34.228 595.548 34.1232C595.441 34.0184 595.381 33.8762 595.381 33.728C595.381 33.5798 595.441 33.4376 595.548 33.3328C595.655 33.228 595.8 33.1691 595.951 33.1691H617.335C617.486 33.1691 617.631 33.228 617.737 33.3328C617.844 33.4376 617.904 33.5798 617.904 33.728C617.904 33.8762 617.844 34.0184 617.737 34.1232C617.631 34.228 617.486 34.2869 617.335 34.2869Z" fill="black"/>
<path d="M636.736 34.2869H621.413C621.262 34.2869 621.117 34.228 621.01 34.1232C620.904 34.0184 620.844 33.8762 620.844 33.728C620.844 33.5798 620.904 33.4376 621.01 33.3328C621.117 33.228 621.262 33.1691 621.413 33.1691H636.736C636.887 33.1691 637.032 33.228 637.139 33.3328C637.246 33.4376 637.306 33.5798 637.306 33.728C637.306 33.8762 637.246 34.0184 637.139 34.1232C637.032 34.228 636.887 34.2869 636.736 34.2869Z" fill="black"/>
<path d="M607.759 37.9368H595.951C595.8 37.9368 595.655 37.8779 595.548 37.7731C595.441 37.6682 595.381 37.5261 595.381 37.3778C595.381 37.2296 595.441 37.0874 595.548 36.9826C595.655 36.8778 595.8 36.8189 595.951 36.8189H607.759C607.91 36.8189 608.055 36.8778 608.162 36.9826C608.269 37.0874 608.329 37.2296 608.329 37.3778C608.329 37.5261 608.269 37.6682 608.162 37.7731C608.055 37.8779 607.91 37.9368 607.759 37.9368Z" fill="black"/>
<path d="M630.18 37.9368H611.587C611.436 37.9368 611.291 37.8779 611.184 37.7731C611.078 37.6682 611.018 37.5261 611.018 37.3778C611.018 37.2296 611.078 37.0874 611.184 36.9826C611.291 36.8778 611.436 36.8189 611.587 36.8189H630.18C630.331 36.8189 630.476 36.8778 630.583 36.9826C630.689 37.0874 630.749 37.2296 630.749 37.3778C630.749 37.5261 630.689 37.6682 630.583 37.7731C630.476 37.8779 630.331 37.9368 630.18 37.9368Z" fill="black"/>
<path d="M613.547 41.5865H597.66C597.509 41.5865 597.364 41.5277 597.257 41.4228C597.15 41.318 597.09 41.1759 597.09 41.0276C597.09 40.8794 597.15 40.7372 597.257 40.6324C597.364 40.5276 597.509 40.4687 597.66 40.4687H613.547C613.698 40.4687 613.843 40.5276 613.95 40.6324C614.056 40.7372 614.116 40.8794 614.116 41.0276C614.116 41.1759 614.056 41.318 613.95 41.4228C613.843 41.5277 613.698 41.5865 613.547 41.5865V41.5865Z" fill="black"/>
<path d="M615.535 45.2364H597.66C597.509 45.2364 597.364 45.1775 597.257 45.0727C597.15 44.9679 597.09 44.8257 597.09 44.6775C597.09 44.5292 597.15 44.3871 597.257 44.2822C597.364 44.1774 597.509 44.1185 597.66 44.1185H615.535C615.686 44.1185 615.831 44.1774 615.938 44.2822C616.044 44.3871 616.104 44.5292 616.104 44.6775C616.104 44.8257 616.044 44.9679 615.938 45.0727C615.831 45.1775 615.686 45.2364 615.535 45.2364Z" fill="black"/>
<path d="M636.736 45.2364H618.508C618.357 45.2364 618.212 45.1775 618.105 45.0727C617.998 44.9679 617.938 44.8257 617.938 44.6775C617.938 44.5292 617.998 44.3871 618.105 44.2822C618.212 44.1774 618.357 44.1185 618.508 44.1185H636.736C636.887 44.1185 637.032 44.1774 637.139 44.2822C637.246 44.3871 637.306 44.5292 637.306 44.6775C637.306 44.8257 637.246 44.9679 637.139 45.0727C637.032 45.1775 636.887 45.2364 636.736 45.2364Z" fill="black"/>
<path d="M606.181 48.8806H595.928C595.777 48.8806 595.632 48.8217 595.525 48.7169C595.419 48.6121 595.359 48.4699 595.359 48.3217C595.359 48.1734 595.419 48.0313 595.525 47.9264C595.632 47.8216 595.777 47.7627 595.928 47.7627H606.181C606.333 47.7627 606.477 47.8216 606.584 47.9264C606.691 48.0313 606.751 48.1734 606.751 48.3217C606.751 48.4699 606.691 48.6121 606.584 48.7169C606.477 48.8217 606.333 48.8806 606.181 48.8806Z" fill="black"/>
<path d="M636.736 48.8806H609.673C609.522 48.8806 609.377 48.8217 609.27 48.7169C609.164 48.6121 609.104 48.4699 609.104 48.3217C609.104 48.1734 609.164 48.0313 609.27 47.9264C609.377 47.8216 609.522 47.7627 609.673 47.7627H636.736C636.887 47.7627 637.032 47.8216 637.139 47.9264C637.246 48.0313 637.306 48.1734 637.306 48.3217C637.306 48.4699 637.246 48.6121 637.139 48.7169C637.032 48.8217 636.887 48.8806 636.736 48.8806Z" fill="black"/>
<path d="M615.421 52.5304H597.66C597.509 52.5304 597.364 52.4715 597.257 52.3667C597.15 52.2619 597.09 52.1197 597.09 51.9715C597.09 51.8232 597.15 51.6811 597.257 51.5762C597.364 51.4714 597.509 51.4125 597.66 51.4125H615.421C615.572 51.4125 615.717 51.4714 615.824 51.5762C615.93 51.6811 615.99 51.8232 615.99 51.9715C615.99 52.1197 615.93 52.2619 615.824 52.3667C615.717 52.4715 615.572 52.5304 615.421 52.5304Z" fill="black"/>
<path d="M629.394 52.5304H617.899C617.748 52.5304 617.603 52.4715 617.496 52.3667C617.389 52.2619 617.329 52.1197 617.329 51.9715C617.329 51.8232 617.389 51.6811 617.496 51.5762C617.603 51.4714 617.748 51.4125 617.899 51.4125H629.394C629.545 51.4125 629.69 51.4714 629.796 51.5762C629.903 51.6811 629.963 51.8232 629.963 51.9715C629.963 52.1197 629.903 52.2619 629.796 52.3667C629.69 52.4715 629.545 52.5304 629.394 52.5304Z" fill="black"/>
<path d="M618.104 56.1802H597.66C597.509 56.1802 597.364 56.1214 597.257 56.0165C597.15 55.9117 597.09 55.7695 597.09 55.6213C597.09 55.4731 597.15 55.3309 597.257 55.2261C597.364 55.1213 597.509 55.0624 597.66 55.0624H618.104C618.255 55.0624 618.4 55.1213 618.507 55.2261C618.613 55.3309 618.673 55.4731 618.673 55.6213C618.673 55.7695 618.613 55.9117 618.507 56.0165C618.4 56.1214 618.255 56.1802 618.104 56.1802V56.1802Z" fill="black"/>
</g>
<path opacity="0.4" d="M647.44 18.6705C647.977 18.6705 648.414 18.2425 648.414 17.7147C648.414 17.1868 647.977 16.7589 647.44 16.7589C646.902 16.7589 646.465 17.1868 646.465 17.7147C646.465 18.2425 646.902 18.6705 647.44 18.6705Z" fill="white"/>
<path opacity="0.4" d="M644.016 18.6705C644.554 18.6705 644.99 18.2425 644.99 17.7147C644.99 17.1868 644.554 16.7589 644.016 16.7589C643.478 16.7589 643.042 17.1868 643.042 17.7147C643.042 18.2425 643.478 18.6705 644.016 18.6705Z" fill="white"/>
<path opacity="0.4" d="M640.598 18.6705C641.136 18.6705 641.572 18.2425 641.572 17.7147C641.572 17.1868 641.136 16.7589 640.598 16.7589C640.06 16.7589 639.624 17.1868 639.624 17.7147C639.624 18.2425 640.06 18.6705 640.598 18.6705Z" fill="white"/>
<g opacity="0.2">
<path d="M585.686 26.9929C585.535 26.9929 585.39 26.934 585.283 26.8292C585.177 26.7244 585.117 26.5822 585.117 26.434C585.117 26.2858 585.177 26.1436 585.283 26.0388C585.39 25.9339 585.535 25.8751 585.686 25.8751C585.837 25.8751 585.982 25.9339 586.089 26.0388C586.196 26.1436 586.256 26.2858 586.256 26.434C586.256 26.5822 586.196 26.7244 586.089 26.8292C585.982 26.934 585.837 26.9929 585.686 26.9929Z" fill="black"/>
<path d="M585.686 30.6427C585.535 30.6427 585.39 30.5838 585.283 30.479C585.177 30.3742 585.117 30.232 585.117 30.0838C585.117 29.9355 585.177 29.7934 585.283 29.6885C585.39 29.5837 585.535 29.5248 585.686 29.5248C585.837 29.5248 585.982 29.5837 586.089 29.6885C586.196 29.7934 586.256 29.9355 586.256 30.0838C586.256 30.232 586.196 30.3742 586.089 30.479C585.982 30.5838 585.837 30.6427 585.686 30.6427Z" fill="black"/>
<path d="M585.686 34.2869C585.535 34.2869 585.39 34.228 585.283 34.1232C585.177 34.0184 585.117 33.8762 585.117 33.728C585.117 33.5798 585.177 33.4376 585.283 33.3328C585.39 33.228 585.535 33.1691 585.686 33.1691C585.837 33.1691 585.982 33.228 586.089 33.3328C586.196 33.4376 586.256 33.5798 586.256 33.728C586.256 33.8762 586.196 34.0184 586.089 34.1232C585.982 34.228 585.837 34.2869 585.686 34.2869Z" fill="black"/>
<path d="M585.686 37.9368C585.535 37.9368 585.39 37.8779 585.283 37.7731C585.177 37.6682 585.117 37.5261 585.117 37.3778C585.117 37.2296 585.177 37.0874 585.283 36.9826C585.39 36.8778 585.535 36.8189 585.686 36.8189C585.837 36.8189 585.982 36.8778 586.089 36.9826C586.196 37.0874 586.256 37.2296 586.256 37.3778C586.256 37.5261 586.196 37.6682 586.089 37.7731C585.982 37.8779 585.837 37.9368 585.686 37.9368Z" fill="black"/>
<path d="M585.686 41.5865C585.535 41.5865 585.39 41.5277 585.283 41.4228C585.177 41.318 585.117 41.1759 585.117 41.0276C585.117 40.8794 585.177 40.7372 585.283 40.6324C585.39 40.5276 585.535 40.4687 585.686 40.4687C585.837 40.4687 585.982 40.5276 586.089 40.6324C586.196 40.7372 586.256 40.8794 586.256 41.0276C586.256 41.1759 586.196 41.318 586.089 41.4228C585.982 41.5277 585.837 41.5865 585.686 41.5865Z" fill="black"/>
<path d="M585.686 45.2364C585.535 45.2364 585.39 45.1775 585.283 45.0727C585.177 44.9679 585.117 44.8257 585.117 44.6775C585.117 44.5292 585.177 44.3871 585.283 44.2822C585.39 44.1774 585.535 44.1185 585.686 44.1185C585.837 44.1185 585.982 44.1774 586.089 44.2822C586.196 44.3871 586.256 44.5292 586.256 44.6775C586.256 44.8257 586.196 44.9679 586.089 45.0727C585.982 45.1775 585.837 45.2364 585.686 45.2364Z" fill="black"/>
<path d="M585.686 48.8806C585.535 48.8806 585.39 48.8217 585.283 48.7169C585.177 48.6121 585.117 48.4699 585.117 48.3217C585.117 48.1734 585.177 48.0313 585.283 47.9264C585.39 47.8216 585.535 47.7627 585.686 47.7627C585.837 47.7627 585.982 47.8216 586.089 47.9264C586.196 48.0313 586.256 48.1734 586.256 48.3217C586.256 48.4699 586.196 48.6121 586.089 48.7169C585.982 48.8217 585.837 48.8806 585.686 48.8806Z" fill="black"/>
<path d="M585.686 52.5304C585.535 52.5304 585.39 52.4715 585.283 52.3667C585.177 52.2619 585.117 52.1197 585.117 51.9715C585.117 51.8232 585.177 51.6811 585.283 51.5762C585.39 51.4714 585.535 51.4125 585.686 51.4125C585.837 51.4125 585.982 51.4714 586.089 51.5762C586.196 51.6811 586.256 51.8232 586.256 51.9715C586.256 52.1197 586.196 52.2619 586.089 52.3667C585.982 52.4715 585.837 52.5304 585.686 52.5304Z" fill="black"/>
<path d="M585.686 56.1802C585.535 56.1802 585.39 56.1214 585.283 56.0165C585.177 55.9117 585.117 55.7695 585.117 55.6213C585.117 55.4731 585.177 55.3309 585.283 55.2261C585.39 55.1213 585.535 55.0624 585.686 55.0624C585.837 55.0624 585.982 55.1213 586.089 55.2261C586.196 55.3309 586.256 55.4731 586.256 55.6213C586.256 55.7695 586.196 55.9117 586.089 56.0165C585.982 56.1214 585.837 56.1802 585.686 56.1802Z" fill="black"/>
</g>
<path d="M713.647 55.8113H622.205V113.264H713.647V55.8113Z" fill="#263238"/>
<path opacity="0.9" d="M713.647 55.8113H622.205V113.264H713.647V55.8113Z" fill="white"/>
<path opacity="0.1" d="M636.468 55.8113H622.205V113.264H636.468V55.8113Z" fill="black"/>
<path d="M713.647 55.8113H622.205V60.4449H713.647V55.8113Z" fill="#7E57C2"/>
<path d="M628.665 65.5256L627.149 66.0845L628.665 66.6434V67.2023L626.5 66.3919V65.833L628.665 65.0281V65.5256Z" fill="white"/>
<path d="M630.299 63.8711H630.932L629.428 68.0798H628.796L630.299 63.8711Z" fill="white"/>
<path d="M633.182 65.7771V66.336L631.017 67.1465V66.5875L632.532 66.0286L631.017 65.4697V64.9107L633.182 65.7771Z" fill="white"/>
<g opacity="0.2">
<path d="M632.863 71.9141H626.665C626.514 71.9141 626.369 71.8552 626.262 71.7504C626.156 71.6456 626.096 71.5034 626.096 71.3552C626.096 71.207 626.156 71.0648 626.262 70.96C626.369 70.8552 626.514 70.7963 626.665 70.7963H632.863C633.014 70.7963 633.159 70.8552 633.266 70.96C633.372 71.0648 633.432 71.207 633.432 71.3552C633.432 71.5034 633.372 71.6456 633.266 71.7504C633.159 71.8552 633.014 71.9141 632.863 71.9141Z" fill="black"/>
<path d="M632.863 75.5583H626.665C626.514 75.5583 626.369 75.4994 626.262 75.3946C626.156 75.2898 626.096 75.1476 626.096 74.9994C626.096 74.8512 626.156 74.709 626.262 74.6042C626.369 74.4993 626.514 74.4405 626.665 74.4405H632.863C633.014 74.4405 633.159 74.4993 633.266 74.6042C633.372 74.709 633.432 74.8512 633.432 74.9994C633.432 75.1476 633.372 75.2898 633.266 75.3946C633.159 75.4994 633.014 75.5583 632.863 75.5583Z" fill="black"/>
<path d="M632.863 79.2081H626.665C626.514 79.2081 626.369 79.1492 626.262 79.0444C626.156 78.9396 626.096 78.7974 626.096 78.6492C626.096 78.501 626.156 78.3588 626.262 78.254C626.369 78.1492 626.514 78.0903 626.665 78.0903H632.863C633.014 78.0903 633.159 78.1492 633.266 78.254C633.372 78.3588 633.432 78.501 633.432 78.6492C633.432 78.7974 633.372 78.9396 633.266 79.0444C633.159 79.1492 633.014 79.2081 632.863 79.2081Z" fill="black"/>
<path d="M632.863 82.8579H626.665C626.514 82.8579 626.369 82.7991 626.262 82.6942C626.156 82.5894 626.096 82.4472 626.096 82.299C626.096 82.1508 626.156 82.0086 626.262 81.9038C626.369 81.799 626.514 81.7401 626.665 81.7401H632.863C633.014 81.7401 633.159 81.799 633.266 81.9038C633.372 82.0086 633.432 82.1508 633.432 82.299C633.432 82.4472 633.372 82.5894 633.266 82.6942C633.159 82.7991 633.014 82.8579 632.863 82.8579Z" fill="black"/>
<path d="M632.863 86.5078H626.665C626.514 86.5078 626.369 86.4489 626.262 86.344C626.156 86.2392 626.096 86.0971 626.096 85.9488C626.096 85.8006 626.156 85.6584 626.262 85.5536C626.369 85.4488 626.514 85.3899 626.665 85.3899H632.863C633.014 85.3899 633.159 85.4488 633.266 85.5536C633.372 85.6584 633.432 85.8006 633.432 85.9488C633.432 86.0971 633.372 86.2392 633.266 86.344C633.159 86.4489 633.014 86.5078 632.863 86.5078Z" fill="black"/>
<path d="M632.863 90.152H626.665C626.514 90.152 626.369 90.0931 626.262 89.9883C626.156 89.8835 626.096 89.7413 626.096 89.593C626.096 89.4448 626.156 89.3026 626.262 89.1978C626.369 89.093 626.514 89.0341 626.665 89.0341H632.863C633.014 89.0341 633.159 89.093 633.266 89.1978C633.372 89.3026 633.432 89.4448 633.432 89.593C633.432 89.7413 633.372 89.8835 633.266 89.9883C633.159 90.0931 633.014 90.152 632.863 90.152Z" fill="black"/>
<path d="M632.863 93.8018H626.665C626.514 93.8018 626.369 93.7429 626.262 93.6381C626.156 93.5332 626.096 93.3911 626.096 93.2428C626.096 93.0946 626.156 92.9524 626.262 92.8476C626.369 92.7428 626.514 92.6839 626.665 92.6839H632.863C633.014 92.6839 633.159 92.7428 633.266 92.8476C633.372 92.9524 633.432 93.0946 633.432 93.2428C633.432 93.3911 633.372 93.5332 633.266 93.6381C633.159 93.7429 633.014 93.8018 632.863 93.8018Z" fill="black"/>
<path d="M632.863 97.4516H626.665C626.514 97.4516 626.369 97.3927 626.262 97.2879C626.156 97.1831 626.096 97.0409 626.096 96.8927C626.096 96.7444 626.156 96.6023 626.262 96.4974C626.369 96.3926 626.514 96.3337 626.665 96.3337H632.863C633.014 96.3337 633.159 96.3926 633.266 96.4974C633.372 96.6023 633.432 96.7444 633.432 96.8927C633.432 97.0409 633.372 97.1831 633.266 97.2879C633.159 97.3927 633.014 97.4516 632.863 97.4516Z" fill="black"/>
<path d="M632.863 101.101H626.665C626.514 101.101 626.369 101.043 626.262 100.938C626.156 100.833 626.096 100.691 626.096 100.543C626.096 100.394 626.156 100.252 626.262 100.147C626.369 100.042 626.514 99.9836 626.665 99.9836H632.863C633.014 99.9836 633.159 100.042 633.266 100.147C633.372 100.252 633.432 100.394 633.432 100.543C633.432 100.691 633.372 100.833 633.266 100.938C633.159 101.043 633.014 101.101 632.863 101.101Z" fill="black"/>
</g>
<path d="M650.778 71.9141H638.069C637.918 71.9141 637.773 71.8552 637.666 71.7504C637.56 71.6456 637.5 71.5034 637.5 71.3552C637.5 71.207 637.56 71.0648 637.666 70.96C637.773 70.8552 637.918 70.7963 638.069 70.7963H650.778C650.929 70.7963 651.073 70.8552 651.18 70.96C651.287 71.0648 651.347 71.207 651.347 71.3552C651.347 71.5034 651.287 71.6456 651.18 71.7504C651.073 71.8552 650.929 71.9141 650.778 71.9141Z" fill="#7E57C2"/>
<path d="M687.285 71.9141H654.161C654.01 71.9141 653.865 71.8552 653.758 71.7504C653.651 71.6456 653.591 71.5034 653.591 71.3552C653.591 71.207 653.651 71.0648 653.758 70.96C653.865 70.8552 654.01 70.7963 654.161 70.7963H687.285C687.436 70.7963 687.581 70.8552 687.688 70.96C687.794 71.0648 687.854 71.207 687.854 71.3552C687.854 71.5034 687.794 71.6456 687.688 71.7504C687.581 71.8552 687.436 71.9141 687.285 71.9141V71.9141Z" fill="#263238"/>
<g opacity="0.2">
<path d="M702.403 71.9141H692.805C692.654 71.9141 692.509 71.8552 692.402 71.7504C692.295 71.6456 692.235 71.5034 692.235 71.3552C692.235 71.207 692.295 71.0648 692.402 70.96C692.509 70.8552 692.654 70.7963 692.805 70.7963H702.403C702.554 70.7963 702.699 70.8552 702.806 70.96C702.912 71.0648 702.972 71.207 702.972 71.3552C702.972 71.5034 702.912 71.6456 702.806 71.7504C702.699 71.8552 702.554 71.9141 702.403 71.9141V71.9141Z" fill="#263238"/>
</g>
<g opacity="0.2">
<path d="M672.976 75.5584H639.778C639.627 75.5584 639.482 75.4995 639.375 75.3946C639.268 75.2898 639.208 75.1477 639.208 74.9994C639.208 74.8512 639.268 74.709 639.375 74.6042C639.482 74.4994 639.627 74.4405 639.778 74.4405H672.976C673.127 74.4405 673.272 74.4994 673.379 74.6042C673.485 74.709 673.545 74.8512 673.545 74.9994C673.545 75.1477 673.485 75.2898 673.379 75.3946C673.272 75.4995 673.127 75.5584 672.976 75.5584Z" fill="#263238"/>
</g>
<path d="M706.96 75.5584H676.04C675.889 75.5584 675.744 75.4995 675.638 75.3946C675.531 75.2898 675.471 75.1477 675.471 74.9994C675.471 74.8512 675.531 74.709 675.638 74.6042C675.744 74.4994 675.889 74.4405 676.04 74.4405H706.983C707.134 74.4405 707.279 74.4994 707.385 74.6042C707.492 74.709 707.552 74.8512 707.552 74.9994C707.552 75.1477 707.492 75.2898 707.385 75.3946C707.279 75.4995 707.134 75.5584 706.983 75.5584H706.96Z" fill="#7E57C2"/>
<path d="M659.453 79.2081H639.778C639.627 79.2081 639.482 79.1492 639.375 79.0444C639.268 78.9396 639.208 78.7974 639.208 78.6492C639.208 78.501 639.268 78.3588 639.375 78.254C639.482 78.1492 639.627 78.0903 639.778 78.0903H659.453C659.604 78.0903 659.749 78.1492 659.856 78.254C659.963 78.3588 660.023 78.501 660.023 78.6492C660.023 78.7974 659.963 78.9396 659.856 79.0444C659.749 79.1492 659.604 79.2081 659.453 79.2081Z" fill="#263238"/>
<path d="M682.876 79.2081H663.509C663.358 79.2081 663.213 79.1492 663.106 79.0444C662.999 78.9396 662.939 78.7974 662.939 78.6492C662.939 78.501 662.999 78.3588 663.106 78.254C663.213 78.1492 663.358 78.0903 663.509 78.0903H682.876C683.027 78.0903 683.172 78.1492 683.279 78.254C683.386 78.3588 683.446 78.501 683.446 78.6492C683.446 78.7974 683.386 78.9396 683.279 79.0444C683.172 79.1492 683.027 79.2081 682.876 79.2081Z" fill="#7E57C2"/>
<path d="M706.96 79.2081H686.043C685.892 79.2081 685.747 79.1492 685.64 79.0444C685.534 78.9396 685.474 78.7974 685.474 78.6492C685.474 78.501 685.534 78.3588 685.64 78.254C685.747 78.1492 685.892 78.0903 686.043 78.0903H706.96C707.111 78.0903 707.256 78.1492 707.363 78.254C707.469 78.3588 707.529 78.501 707.529 78.6492C707.529 78.7974 707.469 78.9396 707.363 79.0444C707.256 79.1492 707.111 79.2081 706.96 79.2081Z" fill="#263238"/>
<path d="M661.276 82.858H649.467C649.316 82.858 649.171 82.7991 649.065 82.6943C648.958 82.5894 648.898 82.4473 648.898 82.299C648.898 82.1508 648.958 82.0086 649.065 81.9038C649.171 81.799 649.316 81.7401 649.467 81.7401H661.276C661.427 81.7401 661.572 81.799 661.678 81.9038C661.785 82.0086 661.845 82.1508 661.845 82.299C661.845 82.4473 661.785 82.5894 661.678 82.6943C661.572 82.7991 661.427 82.858 661.276 82.858V82.858Z" fill="#263238"/>
<path d="M678 82.858H665.109C664.958 82.858 664.813 82.7991 664.707 82.6943C664.6 82.5894 664.54 82.4473 664.54 82.299C664.54 82.1508 664.6 82.0086 664.707 81.9038C664.813 81.799 664.958 81.7401 665.109 81.7401H678C678.151 81.7401 678.296 81.799 678.403 81.9038C678.51 82.0086 678.57 82.1508 678.57 82.299C678.57 82.4473 678.51 82.5894 678.403 82.6943C678.296 82.7991 678.151 82.858 678 82.858Z" fill="#263238"/>
<g opacity="0.2">
<path d="M701.833 82.858H680.928C680.777 82.858 680.632 82.7991 680.525 82.6943C680.418 82.5894 680.358 82.4473 680.358 82.299C680.358 82.1508 680.418 82.0086 680.525 81.9038C680.632 81.799 680.777 81.7401 680.928 81.7401H701.833C701.984 81.7401 702.129 81.799 702.236 81.9038C702.343 82.0086 702.403 82.1508 702.403 82.299C702.403 82.4473 702.343 82.5894 702.236 82.6943C702.129 82.7991 701.984 82.858 701.833 82.858Z" fill="#263238"/>
</g>
<g opacity="0.2">
<path d="M655.665 86.5078H639.778C639.627 86.5078 639.482 86.4489 639.375 86.344C639.268 86.2392 639.208 86.0971 639.208 85.9488C639.208 85.8006 639.268 85.6584 639.375 85.5536C639.482 85.4488 639.627 85.3899 639.778 85.3899H655.665C655.816 85.3899 655.961 85.4488 656.068 85.5536C656.175 85.6584 656.235 85.8006 656.235 85.9488C656.235 86.0971 656.175 86.2392 656.068 86.344C655.961 86.4489 655.816 86.5078 655.665 86.5078Z" fill="#263238"/>
</g>
<path d="M657.653 90.152H639.778C639.627 90.152 639.482 90.0931 639.375 89.9883C639.268 89.8835 639.208 89.7413 639.208 89.5931C639.208 89.4448 639.268 89.3027 639.375 89.1979C639.482 89.093 639.627 89.0341 639.778 89.0341H657.653C657.804 89.0341 657.949 89.093 658.056 89.1979C658.163 89.3027 658.223 89.4448 658.223 89.5931C658.223 89.7413 658.163 89.8835 658.056 89.9883C657.949 90.0931 657.804 90.152 657.653 90.152Z" fill="#7E57C2"/>
<path d="M687.513 90.152H660.581C660.43 90.152 660.285 90.0931 660.178 89.9883C660.071 89.8835 660.011 89.7413 660.011 89.5931C660.011 89.4448 660.071 89.3027 660.178 89.1979C660.285 89.093 660.43 89.0341 660.581 89.0341H687.513C687.664 89.0341 687.809 89.093 687.916 89.1979C688.022 89.3027 688.082 89.4448 688.082 89.5931C688.082 89.7413 688.022 89.8835 687.916 89.9883C687.809 90.0931 687.664 90.152 687.513 90.152Z" fill="#263238"/>
<path d="M706.96 90.152H690.777C690.626 90.152 690.481 90.0931 690.374 89.9883C690.267 89.8835 690.207 89.7413 690.207 89.5931C690.207 89.4448 690.267 89.3027 690.374 89.1979C690.481 89.093 690.626 89.0341 690.777 89.0341H706.96C707.111 89.0341 707.256 89.093 707.363 89.1979C707.469 89.3027 707.529 89.4448 707.529 89.5931C707.529 89.7413 707.469 89.8835 707.363 89.9883C707.256 90.0931 707.111 90.152 706.96 90.152V90.152Z" fill="#263238"/>
<g opacity="0.2">
<path d="M655.71 93.8018H645.457C645.306 93.8018 645.161 93.7429 645.054 93.6381C644.948 93.5333 644.888 93.3911 644.888 93.2429C644.888 93.0946 644.948 92.9525 645.054 92.8476C645.161 92.7428 645.306 92.6839 645.457 92.6839H655.71C655.862 92.6839 656.006 92.7428 656.113 92.8476C656.22 92.9525 656.28 93.0946 656.28 93.2429C656.28 93.3911 656.22 93.5333 656.113 93.6381C656.006 93.7429 655.862 93.8018 655.71 93.8018Z" fill="#263238"/>
</g>
<g opacity="0.2">
<path d="M678.832 93.8018H659.202C659.051 93.8018 658.906 93.7429 658.8 93.6381C658.693 93.5333 658.633 93.3911 658.633 93.2429C658.633 93.0946 658.693 92.9525 658.8 92.8476C658.906 92.7428 659.051 92.6839 659.202 92.6839H678.832C678.983 92.6839 679.128 92.7428 679.234 92.8476C679.341 92.9525 679.401 93.0946 679.401 93.2429C679.401 93.3911 679.341 93.5333 679.234 93.6381C679.128 93.7429 678.983 93.8018 678.832 93.8018Z" fill="#263238"/>
</g>
<path d="M701.833 93.8018H682.665C682.514 93.8018 682.369 93.7429 682.262 93.6381C682.156 93.5333 682.096 93.3911 682.096 93.2429C682.096 93.0946 682.156 92.9525 682.262 92.8476C682.369 92.7428 682.514 92.6839 682.665 92.6839H701.833C701.984 92.6839 702.129 92.7428 702.236 92.8476C702.343 92.9525 702.403 93.0946 702.403 93.2429C702.403 93.3911 702.343 93.5333 702.236 93.6381C702.129 93.7429 701.984 93.8018 701.833 93.8018Z" fill="#263238"/>
<path d="M663.241 97.4516H651.176C651.025 97.4516 650.88 97.3927 650.773 97.2879C650.667 97.1831 650.607 97.0409 650.607 96.8927C650.607 96.7445 650.667 96.6023 650.773 96.4975C650.88 96.3927 651.025 96.3338 651.176 96.3338H663.241C663.392 96.3338 663.537 96.3927 663.644 96.4975C663.751 96.6023 663.811 96.7445 663.811 96.8927C663.811 97.0409 663.751 97.1831 663.644 97.2879C663.537 97.3927 663.392 97.4516 663.241 97.4516V97.4516Z" fill="#263238"/>
<g opacity="0.2">
<path d="M677.208 97.4516H665.719C665.568 97.4516 665.423 97.3927 665.316 97.2879C665.209 97.1831 665.149 97.0409 665.149 96.8927C665.149 96.7445 665.209 96.6023 665.316 96.4975C665.423 96.3927 665.568 96.3338 665.719 96.3338H677.208C677.359 96.3338 677.504 96.3927 677.611 96.4975C677.718 96.6023 677.778 96.7445 677.778 96.8927C677.778 97.0409 677.718 97.1831 677.611 97.2879C677.504 97.3927 677.359 97.4516 677.208 97.4516Z" fill="#263238"/>
</g>
<path d="M701.833 97.4516H680.814C680.663 97.4516 680.518 97.3927 680.411 97.2879C680.304 97.1831 680.244 97.0409 680.244 96.8927C680.244 96.7445 680.304 96.6023 680.411 96.4975C680.518 96.3927 680.663 96.3338 680.814 96.3338H701.833C701.984 96.3338 702.129 96.3927 702.236 96.4975C702.343 96.6023 702.403 96.7445 702.403 96.8927C702.403 97.0409 702.343 97.1831 702.236 97.2879C702.129 97.3927 701.984 97.4516 701.833 97.4516Z" fill="#7E57C2"/>
<g opacity="0.2">
<path d="M665.924 101.101H651.176C651.025 101.101 650.88 101.043 650.773 100.938C650.667 100.833 650.607 100.691 650.607 100.543C650.607 100.394 650.667 100.252 650.773 100.147C650.88 100.042 651.025 99.9836 651.176 99.9836H665.924C666.075 99.9836 666.22 100.042 666.327 100.147C666.433 100.252 666.493 100.394 666.493 100.543C666.493 100.691 666.433 100.833 666.327 100.938C666.22 101.043 666.075 101.101 665.924 101.101Z" fill="#263238"/>
</g>
<path opacity="0.4" d="M709.648 58.1644C709.648 58.3548 709.706 58.5409 709.814 58.6991C709.922 58.8573 710.075 58.9805 710.255 59.0531C710.434 59.1257 710.631 59.1444 710.821 59.1069C711.012 59.0693 711.186 58.9772 711.323 58.8422C711.46 58.7072 711.553 58.5354 711.59 58.3485C711.627 58.1617 711.607 57.9682 711.532 57.7927C711.457 57.6171 711.33 57.4673 711.168 57.3624C711.007 57.2574 710.817 57.202 710.623 57.2031C710.494 57.2031 710.367 57.228 710.248 57.2764C710.13 57.3247 710.022 57.3956 709.932 57.485C709.841 57.5743 709.77 57.6804 709.721 57.797C709.672 57.9136 709.648 58.0385 709.648 58.1644V58.1644Z" fill="white"/>
<path opacity="0.4" d="M707.227 59.1202C707.765 59.1202 708.202 58.6923 708.202 58.1645C708.202 57.6366 707.765 57.2087 707.227 57.2087C706.69 57.2087 706.253 57.6366 706.253 58.1645C706.253 58.6923 706.69 59.1202 707.227 59.1202Z" fill="white"/>
<path opacity="0.4" d="M703.804 59.1202C704.342 59.1202 704.778 58.6923 704.778 58.1645C704.778 57.6366 704.342 57.2087 703.804 57.2087C703.266 57.2087 702.83 57.6366 702.83 58.1645C702.83 58.6923 703.266 59.1202 703.804 59.1202Z" fill="white"/>
<path d="M560.554 59.2096H544.195C543.533 59.2089 542.877 59.3361 542.266 59.5841C541.654 59.8321 541.098 60.1959 540.63 60.6548C540.162 61.1137 539.791 61.6586 539.537 62.2584C539.284 62.8583 539.153 63.5012 539.153 64.1505V78.1238C539.153 78.7731 539.282 79.4162 539.535 80.0163C539.788 80.6164 540.159 81.1618 540.626 81.6212C541.094 82.0806 541.649 82.445 542.261 82.6937C542.872 82.9423 543.527 83.0703 544.189 83.0703H555.792L559.21 87.4803V83.0703H560.549C561.886 83.0703 563.168 82.5492 564.113 81.6215C565.059 80.6939 565.59 79.4357 565.59 78.1238V64.1505C565.59 62.8401 565.059 61.5834 564.115 60.6568C563.171 59.7302 561.89 59.2096 560.554 59.2096Z" fill="#7E57C2"/>
<path opacity="0.7" d="M560.554 59.2096H544.195C543.533 59.2089 542.877 59.3361 542.266 59.5841C541.654 59.8321 541.098 60.1959 540.63 60.6548C540.162 61.1137 539.791 61.6586 539.537 62.2584C539.284 62.8583 539.153 63.5012 539.153 64.1505V78.1238C539.153 78.7731 539.282 79.4162 539.535 80.0163C539.788 80.6164 540.159 81.1618 540.626 81.6212C541.094 82.0806 541.649 82.445 542.261 82.6937C542.872 82.9423 543.527 83.0703 544.189 83.0703H555.792L559.21 87.4803V83.0703H560.549C561.886 83.0703 563.168 82.5492 564.113 81.6215C565.059 80.6939 565.59 79.4357 565.59 78.1238V64.1505C565.59 62.8401 565.059 61.5834 564.115 60.6568C563.171 59.7302 561.89 59.2096 560.554 59.2096Z" fill="white"/>
<path d="M551.52 74.6249C551.412 74.6244 551.305 74.6012 551.207 74.5569C551.109 74.5125 551.021 74.4481 550.95 74.3678L547.766 70.7124C547.703 70.639 547.654 70.554 547.624 70.4623C547.594 70.3706 547.583 70.274 547.591 70.178C547.599 70.082 547.626 69.9885 547.67 69.9027C547.715 69.817 547.777 69.7408 547.852 69.6784C547.926 69.616 548.013 69.5687 548.106 69.5391C548.2 69.5096 548.298 69.4984 548.396 69.5061C548.494 69.5139 548.589 69.5406 548.677 69.5845C548.764 69.6284 548.842 69.6888 548.905 69.7622L551.52 72.7916L555.843 67.7948C555.973 67.6542 556.154 67.5685 556.347 67.5559C556.54 67.5433 556.73 67.6048 556.878 67.7273C557.026 67.8498 557.119 68.0237 557.139 68.2125C557.158 68.4014 557.102 68.5902 556.983 68.7394L552.09 74.379C552.018 74.4578 551.93 74.5205 551.832 74.563C551.734 74.6054 551.627 74.6266 551.52 74.6249V74.6249Z" fill="white"/>
<path d="M558.114 76.7103C561.287 73.5977 561.287 68.5512 558.114 65.4386C554.942 62.326 549.799 62.326 546.627 65.4386C543.455 68.5512 543.455 73.5977 546.627 76.7103C549.799 79.823 554.942 79.823 558.114 76.7103Z" fill="#7E57C2"/>
<path d="M612.652 158.174L624.882 157.587L623.692 168.022C623.692 168.022 615.204 169.609 611.416 163.685L612.652 158.174Z" fill="#EBB376"/>
<path d="M632.766 161.226L629.98 168.793L623.692 168.022L624.882 157.587L632.766 161.226Z" fill="#EBB376"/>
<path d="M600.912 175.109C605.569 172.723 609.814 169.632 613.49 165.948L612.652 158.174C601.095 159.851 594.424 162.248 594.424 162.248C594.424 162.248 598.708 147.185 594.789 141.697L584.029 143.608C584.029 143.608 572.596 166.927 580.286 175.109H600.912Z" fill="#7E57C2"/>
<path opacity="0.7" d="M600.895 175.109C605.555 172.724 609.803 169.634 613.484 165.954L612.652 158.168C601.465 159.778 594.851 162.081 594.424 162.232C594.567 161.673 598.617 147.079 594.777 141.691L584.017 143.602C581.805 148.285 580.048 153.162 578.771 158.168C577.233 164.534 576.783 171.392 580.28 175.109H600.895Z" fill="white"/>
<path opacity="0.2" d="M592.049 175.109C595.848 151.489 592.482 145.486 592.482 145.486L578.811 158.157C577.273 164.523 576.823 171.381 580.32 175.098L592.049 175.109Z" fill="black"/>
<path d="M589.674 175.109C592.237 163.171 595.113 144.48 594.8 141.697C594.344 137.65 571.913 120.312 552.443 132.933C548.455 135.509 546.422 163.305 545.727 175.109H589.674Z" fill="#7E57C2"/>
<path opacity="0.7" d="M589.674 175.109C592.237 163.171 595.113 144.474 594.8 141.691C594.344 137.65 571.907 120.312 552.437 132.938C550.996 133.883 549.811 138.147 548.831 143.781C547.533 151.45 546.633 161.634 546.097 169.313C545.949 171.487 545.824 173.455 545.727 175.109H589.674Z" fill="white"/>
<path d="M580.064 81.6395C573.314 78.9622 557.398 88.5702 556.003 105.701C554.607 122.833 563.459 118.087 563.459 118.087C563.459 118.087 565.037 124.621 571.485 122.603C571.485 122.603 576.811 128.523 581.767 126.114C581.767 126.114 587.936 132.418 591.246 129.093C591.246 129.093 594.846 133.123 598.132 130.071C601.419 127.019 610.812 95.8643 596.076 88.6597C581.34 81.4551 580.064 81.6395 580.064 81.6395Z" fill="#263238"/>
<path d="M580.075 151.757L579.426 151.701C580.178 143.452 578.327 139.802 578.287 139.768L578.856 139.472C578.965 139.601 580.844 143.273 580.075 151.757Z" fill="#263238"/>
<path d="M583.128 151.83C578.657 141.495 583.698 139.086 583.903 138.975L584.171 139.533L584.034 139.243L584.171 139.533C584.125 139.533 579.523 141.819 583.727 151.545L583.128 151.83Z" fill="#263238"/>
<path d="M578.759 141.439C578.759 141.439 570.13 134.732 556.732 130.954L552.431 132.932C552.431 132.932 545.22 124.174 557.239 121.307C569.258 118.439 585.606 126.337 589.708 133.1C593.809 139.863 582.576 142.043 582.576 142.043C582.576 142.043 581.545 140.668 578.759 141.439Z" fill="#7E57C2"/>
<path opacity="0.6" d="M578.759 141.439C578.759 141.439 570.13 134.732 556.732 130.954L552.431 132.932C552.431 132.932 545.22 124.174 557.239 121.307C569.258 118.439 585.606 126.337 589.708 133.1C593.809 139.863 582.576 142.043 582.576 142.043C582.576 142.043 581.545 140.668 578.759 141.439Z" fill="white"/>
<path d="M583.966 151.707C583.966 151.818 583.933 151.926 583.87 152.017C583.807 152.109 583.718 152.181 583.614 152.223C583.51 152.266 583.396 152.277 583.285 152.255C583.175 152.234 583.073 152.18 582.994 152.102C582.914 152.024 582.86 151.924 582.838 151.816C582.816 151.708 582.827 151.595 582.87 151.493C582.913 151.391 582.986 151.304 583.08 151.242C583.173 151.181 583.284 151.148 583.396 151.148C583.547 151.148 583.692 151.207 583.799 151.312C583.906 151.417 583.966 151.559 583.966 151.707Z" fill="white"/>
<path d="M580.269 151.707C580.269 151.818 580.236 151.926 580.173 152.017C580.11 152.109 580.021 152.181 579.917 152.223C579.813 152.266 579.699 152.277 579.588 152.255C579.478 152.234 579.376 152.18 579.297 152.102C579.217 152.024 579.163 151.924 579.141 151.816C579.119 151.708 579.13 151.595 579.173 151.493C579.216 151.391 579.289 151.304 579.383 151.242C579.477 151.181 579.587 151.148 579.699 151.148C579.85 151.148 579.995 151.207 580.102 151.312C580.209 151.417 580.269 151.559 580.269 151.707Z" fill="white"/>
<path d="M574.174 109.837C573.65 115.835 571.776 126.51 566.803 128.841C566.803 128.841 572.363 129.959 581.044 140.752C585.982 137.354 584.114 135.034 584.114 135.034C578.338 131.317 579.836 126.734 582.172 122.738L574.174 109.837Z" fill="#EBB376"/>
<path opacity="0.2" d="M577.427 115.097L582.16 122.754C581.595 123.679 581.116 124.652 580.73 125.661C578.452 124.465 575.957 120.675 576.43 118.082C576.577 117.036 576.915 116.025 577.427 115.097V115.097Z" fill="black"/>
<path d="M573.507 97.1554C571.918 106.579 571.041 110.525 574.601 116.589C579.95 125.717 591.804 126.147 596.162 117.517C600.081 109.748 602.023 95.6407 593.843 89.4142C585.772 83.2772 575.085 87.7263 573.507 97.1554Z" fill="#EBB376"/>
<path d="M593.177 84.1659C599.403 87.553 605.333 98.1391 596.475 95.4954C595.136 98.0385 590.368 95.7078 587.594 92.656C587.127 94.7744 582.023 96.8983 578.264 93.6174C580.081 96.1885 576.988 102.678 573.77 101.56C570.551 100.442 563.328 98.9719 569.725 88.9671C576.122 78.9622 586.529 80.5384 593.177 84.1659Z" fill="#263238"/>
<path d="M590.91 106.048C590.91 106.048 591.479 109.787 592.562 111.816C591.348 112.504 589.713 111.587 589.713 111.587L590.91 106.048Z" fill="#D58745"/>
<path d="M584.701 113.264C585.105 113.457 585.526 113.615 585.96 113.733C585.989 113.742 586.019 113.744 586.05 113.74C586.08 113.735 586.109 113.725 586.134 113.709C586.16 113.694 586.182 113.673 586.199 113.648C586.216 113.623 586.228 113.595 586.233 113.566C586.249 113.504 586.239 113.439 586.206 113.385C586.173 113.33 586.119 113.291 586.056 113.275C585.076 113.005 584.17 112.524 583.405 111.865C582.64 111.206 582.036 110.387 581.636 109.469C581.628 109.439 581.613 109.411 581.594 109.387C581.574 109.363 581.55 109.343 581.522 109.329C581.494 109.314 581.464 109.305 581.433 109.302C581.401 109.299 581.37 109.303 581.34 109.312C581.282 109.336 581.236 109.38 581.212 109.437C581.187 109.493 581.186 109.557 581.209 109.614C581.876 111.211 583.119 112.51 584.701 113.264V113.264Z" fill="#263238"/>
<path d="M568.66 103.93C569.197 105.889 570.504 107.559 572.294 108.574C574.613 109.821 576.282 107.686 576.111 105.031C575.934 102.633 574.51 99.1005 571.97 98.9608C569.429 98.821 567.971 101.454 568.66 103.93Z" fill="#EBB376"/>
<path d="M584.046 97.4125C584.103 97.4385 584.165 97.452 584.228 97.452C584.291 97.452 584.353 97.4385 584.41 97.4125C584.916 97.1372 585.483 96.9881 586.061 96.9783C586.639 96.9686 587.21 97.0985 587.725 97.3566C587.777 97.3888 587.834 97.41 587.894 97.419C587.954 97.4279 588.015 97.4244 588.074 97.4086C588.132 97.3928 588.187 97.365 588.234 97.3272C588.281 97.2894 588.319 97.2422 588.346 97.1889C588.403 97.0764 588.415 96.9474 588.38 96.8267C588.345 96.7059 588.266 96.6021 588.158 96.535C587.516 96.1896 586.795 96.0085 586.062 96.0085C585.329 96.0085 584.608 96.1896 583.966 96.535C583.858 96.5981 583.779 96.6993 583.745 96.8179C583.711 96.9365 583.725 97.0633 583.784 97.1722C583.839 97.2803 583.932 97.3655 584.046 97.4125V97.4125Z" fill="#263238"/>
<path d="M599.351 101.09C599.403 101.119 599.46 101.137 599.519 101.143C599.578 101.149 599.637 101.142 599.693 101.124C599.753 101.104 599.807 101.073 599.854 101.033C599.901 100.992 599.939 100.943 599.966 100.888C599.993 100.833 600.009 100.773 600.012 100.711C600.015 100.65 600.005 100.589 599.984 100.531C599.776 99.8051 599.4 99.1357 598.885 98.5754C598.37 98.015 597.731 97.5788 597.016 97.3007C596.957 97.2803 596.895 97.2725 596.833 97.2779C596.771 97.2833 596.711 97.3018 596.657 97.332C596.603 97.3622 596.556 97.4035 596.52 97.4531C596.483 97.5027 596.458 97.5594 596.446 97.6193C596.417 97.7407 596.434 97.8685 596.495 97.978C596.556 98.0875 596.657 98.1708 596.777 98.2118C597.34 98.4402 597.842 98.7922 598.245 99.2408C598.648 99.6894 598.941 100.223 599.101 100.8C599.121 100.862 599.153 100.92 599.196 100.97C599.239 101.02 599.292 101.061 599.351 101.09V101.09Z" fill="#263238"/>
<path d="M587.11 103.578C586.831 104.326 586.193 104.779 585.686 104.595C585.179 104.41 584.997 103.661 585.276 102.918C585.555 102.175 586.193 101.716 586.694 101.901C587.196 102.085 587.384 102.834 587.11 103.578Z" fill="#263238"/>
<path d="M586.472 101.862L588.363 101.822C588.363 101.822 587.03 102.884 586.472 101.862Z" fill="#263238"/>
<path d="M596.674 106.557C596.395 107.3 595.757 107.753 595.256 107.574C594.755 107.395 594.561 106.635 594.84 105.897C595.119 105.159 595.757 104.701 596.264 104.88C596.771 105.059 596.953 105.808 596.674 106.557Z" fill="#263238"/>
<path d="M596.042 104.835L597.927 104.796C597.927 104.796 596.595 105.864 596.042 104.835Z" fill="#263238"/>
<path opacity="0.2" d="M574.237 158.722C574.237 158.722 559.25 169.99 546.097 169.341C546.632 161.661 547.533 151.455 548.831 143.809C550.176 142.356 551.058 141.473 551.058 141.473L559.033 147.325L557.091 149.717C557.091 149.717 569.161 149.114 573.365 149.717L574.237 158.722Z" fill="black"/>
<path d="M575.786 149.689L587.782 147.286L588.21 157.783C588.21 157.783 580.07 160.611 575.41 155.318L575.786 149.689Z" fill="#EBB376"/>
<path d="M596.133 149.723L594.55 157.615L588.21 157.788L587.782 147.291L596.133 149.723Z" fill="#EBB376"/>
<path d="M575.786 149.689L576.373 157.788L573.388 159.102L572.112 149.689H575.786Z" fill="#7E57C2"/>
<path opacity="0.6" d="M575.786 149.689L576.373 157.788L573.388 159.102L572.112 149.689H575.786Z" fill="white"/>
<path d="M556.732 130.954C553.513 131.512 550.598 133.166 548.501 135.627C544.884 139.796 532.135 152.182 534.967 162.293C537.798 172.404 565.06 164.881 573.388 159.102L572.112 149.689L553.229 151.047L559.05 147.286C563.043 136.387 556.732 130.954 556.732 130.954Z" fill="#7E57C2"/>
<path opacity="0.7" d="M556.732 130.954C553.513 131.512 550.598 133.166 548.501 135.627C544.884 139.796 532.135 152.182 534.967 162.293C537.798 172.404 565.06 164.881 573.388 159.102L572.112 149.689L553.229 151.047L559.05 147.286C563.043 136.387 556.732 130.954 556.732 130.954Z" fill="white"/>
<path d="M611.422 158.353L614.857 157.788V166.82L612.134 167.256L611.422 158.353Z" fill="#7E57C2"/>
<path opacity="0.6" d="M611.422 158.353L614.857 157.788V166.82L612.134 167.256L611.422 158.353Z" fill="white"/>
<path d="M604.478 166.731C604.468 166.236 604.493 165.741 604.552 165.25L604.655 164.506L603.92 164.931L603.481 165.188C603.337 165.252 603.189 165.306 603.037 165.35C602.778 165.431 602.499 165.431 602.24 165.35C601.989 165.26 601.768 165.103 601.602 164.898C601.409 164.671 601.257 164.414 601.152 164.138L600.508 162.377L600.052 164.244C600.007 164.428 599.978 164.618 599.944 164.803C599.91 164.987 599.83 165.149 599.779 165.322C599.67 165.601 599.487 165.846 599.249 166.032C598.983 166.166 598.674 166.192 598.389 166.105C598.03 166.013 597.688 165.865 597.375 165.669L596.384 165.06L596.783 166.049C596.955 166.47 597.092 166.903 597.193 167.346C597.243 167.566 597.273 167.791 597.284 168.017C597.309 168.246 597.257 168.478 597.136 168.676C597.336 168.518 597.473 168.297 597.523 168.05C597.588 167.809 597.623 167.561 597.626 167.312C597.637 167.117 597.637 166.921 597.626 166.725C597.791 166.817 597.962 166.9 598.138 166.971C598.397 167.075 598.675 167.125 598.954 167.119C599.234 167.112 599.509 167.048 599.762 166.932C600.243 166.667 600.619 166.249 600.827 165.747V165.675C601.135 166.019 601.548 166.257 602.005 166.352C602.461 166.448 602.937 166.396 603.362 166.206C603.529 166.131 603.691 166.045 603.846 165.948C603.846 165.948 603.846 165.988 603.846 166.01C603.887 166.274 603.942 166.535 604.011 166.792C604.08 167.053 604.176 167.305 604.296 167.547C604.41 167.79 604.579 168.005 604.791 168.173C604.664 167.954 604.581 167.713 604.547 167.463C604.507 167.221 604.484 166.976 604.478 166.731Z" fill="#7E57C2"/>
<path d="M624.854 154.122C624.41 154.164 623.962 154.116 623.538 153.982C623.101 153.854 622.685 153.666 622.302 153.423C621.938 153.158 621.628 152.831 621.385 152.456C621.128 152.084 620.923 151.68 620.775 151.254L620.399 150.136L619.761 151.126C619.489 151.541 619.159 151.917 618.782 152.244C618.475 152.541 618.072 152.723 617.642 152.758H617.506L617.335 152.724C617.215 152.724 617.101 152.668 616.982 152.64C616.744 152.564 616.513 152.466 616.292 152.35C615.846 152.105 615.435 151.804 615.068 151.455L614.076 150.522L614.281 151.802C614.396 152.485 614.44 153.178 614.412 153.87C614.401 154.196 614.334 154.517 614.213 154.82C614.159 154.953 614.061 155.064 613.935 155.135C613.809 155.206 613.662 155.233 613.518 155.211H613.262L613.342 155.418C613.509 155.839 613.68 156.259 613.854 156.676C613.803 156.301 613.74 155.927 613.672 155.558H613.78C613.894 155.55 614.006 155.531 614.116 155.502C614.221 155.449 614.322 155.389 614.418 155.323C614.492 155.245 614.572 155.161 614.64 155.077C614.859 154.737 615.004 154.357 615.068 153.959C615.139 153.591 615.181 153.217 615.193 152.842V152.842C615.375 152.99 615.565 153.128 615.763 153.255C616.03 153.417 616.312 153.553 616.606 153.663C616.919 153.791 617.252 153.865 617.591 153.881C618.296 153.871 618.972 153.609 619.494 153.143C619.717 152.959 619.925 152.757 620.114 152.54C620.226 152.732 620.348 152.919 620.479 153.099C620.82 153.561 621.245 153.957 621.732 154.267C622.218 154.557 622.752 154.761 623.31 154.871C623.668 154.939 624.034 154.965 624.398 154.949C624.352 155.061 624.301 155.172 624.261 155.29C624.161 155.612 624.083 155.941 624.028 156.273C623.967 156.607 623.952 156.947 623.982 157.285C624 157.622 624.104 157.949 624.284 158.235C624.186 157.93 624.161 157.607 624.21 157.291C624.253 156.977 624.327 156.668 624.432 156.368C624.651 155.784 624.928 155.223 625.258 154.692L625.617 154.094L624.854 154.122Z" fill="#7E57C2"/>
<path d="M738.813 187.154L539.045 187.154C538.374 187.154 537.731 186.893 537.257 186.427C536.782 185.962 536.516 185.331 536.516 184.673V178.636L741.342 178.636V184.673C741.342 185.331 741.076 185.962 740.602 186.427C740.127 186.893 739.484 187.154 738.813 187.154Z" fill="#7E57C2"/>
<path opacity="0.2" d="M536.51 182.89L741.342 182.89V178.631L536.51 178.631V182.89Z" fill="black"/>
<path d="M532.221 179.743H745.637C746.286 179.743 746.908 179.49 747.367 179.041C747.827 178.591 748.085 177.981 748.087 177.345V177.345C748.087 176.708 747.829 176.096 747.369 175.646C746.91 175.195 746.287 174.942 745.637 174.942H532.221C531.571 174.942 530.948 175.195 530.489 175.646C530.03 176.096 529.771 176.708 529.771 177.345V177.345C529.773 177.981 530.032 178.591 530.491 179.041C530.95 179.49 531.572 179.743 532.221 179.743V179.743Z" fill="#7E57C2"/>
<path d="M585.344 171.124V173.455C585.344 174.506 586.637 174.942 587.708 174.942H671.204C672.264 174.942 673.523 174.506 673.523 173.455V171.124H585.344Z" fill="#263238"/>
<path opacity="0.4" d="M585.344 171.124V173.455C585.344 174.506 586.637 174.942 587.708 174.942H671.204C672.264 174.942 673.523 174.506 673.523 173.455V171.124H585.344Z" fill="white"/>
<path opacity="0.2" d="M613.792 171.124V173.455C613.792 174.506 615.062 174.942 616.133 174.942H671.204C672.264 174.942 673.523 174.506 673.523 173.455V171.124H613.792Z" fill="black"/>
<path d="M687.496 126.79L677.556 171.029C677.377 171.74 676.965 172.373 676.381 172.83C675.798 173.287 675.078 173.542 674.332 173.556H620.029C618.588 173.556 617.654 172.231 617.99 170.761L627.918 126.857C628.254 125.415 629.69 124.694 631.148 124.694H685.445C686.903 124.699 687.82 125.348 687.496 126.79Z" fill="#263238"/>
<path opacity="0.4" d="M687.496 126.79L677.556 171.029C677.377 171.74 676.964 172.373 676.381 172.83C675.798 173.287 675.078 173.542 674.331 173.556H621.875C620.416 173.556 619.499 172.231 619.824 170.761L629.764 126.857C630.089 125.415 631.535 124.694 632.994 124.694H685.445C686.903 124.699 687.82 125.348 687.496 126.79Z" fill="white"/>
<path opacity="0.2" d="M660.723 149.276C660.723 153.065 656.588 156.145 653.552 156.145C650.515 156.145 648.721 153.065 649.564 149.276C650.407 145.486 653.443 142.54 656.4 142.423C655.534 146.213 657.385 149.276 660.387 149.276C660.499 149.286 660.611 149.286 660.723 149.276V149.276Z" fill="black"/>
</svg>
